<?xml version="1.0" encoding="UTF-8"?>
<svg xmlns="http://www.w3.org/2000/svg" version="1.1" viewBox="0 0 600 600">
  <defs>
    <style>
      .cls-1 {
        stroke: #6a7762;
      }

      .cls-1, .cls-2 {
        stroke-miterlimit: 10;
      }

      .cls-1, .cls-3 {
        fill: #8a6e5a;
      }

      .cls-4, .cls-5 {
        isolation: isolate;
      }

      .cls-2 {
        stroke: #fff;
      }

      .cls-2, .cls-5, .cls-6 {
        fill: #6e7d8b;
      }

      .cls-7 {
        fill: #6a7762;
      }

      .cls-5 {
        font-family: HPSimplified-Bold, 'HP Simplified';
        font-size: 11.2px;
        font-weight: 700;
      }
    </style>
  </defs>
  <!-- Generator: Adobe Illustrator 28.7.1, SVG Export Plug-In . SVG Version: 1.2.0 Build 142)  -->
  <g>
    <g id="Capa_1">
      <g>
        <g id="Capa_1-2" data-name="Capa_1">
          <path class="cls-3" d="M285,73.1c-37.2,3-71.9,14.4-100.8,33.3-11.2,7.3-25.9,19.4-35.9,29.7-43.7,44.7-64.2,101-60.4,165.4,2.5,42.5,14.8,75.5,41.3,110.8,31.2,41.5,78.1,70.1,134.3,81.8,9.8,2.1,13.8,2.3,35.5,2.3s32-.7,58.7-7.4c18.3-4.7,44.7-16.6,62.6-28.3,28.4-18.6,53.7-47.6,71.7-82.1,15.3-29.4,21.9-60.1,20.7-96.6-1.2-34-7.8-61.8-21.7-89.8-11.2-22.7-23.5-39.9-41.3-58-16.7-17-32.5-28.4-54.7-39.6-25.5-12.9-49.7-19.4-79.5-21.6-15.4-1.1-15.5-1.1-30.5,0h0ZM332.5,82.4c24.7,4.4,37.4,8.6,58.3,18.9,57.3,28.5,97.9,81.7,110.6,145.3,4.9,24.3,5.7,41.5,3,64.3-4.7,40.9-21.3,77.2-50.6,110.8-24.8,28.6-63.6,52.1-100.8,61.1-23.9,5.9-29.8,6.6-53.5,6.6s-23.3-.2-35.5-2.7c-59-11.7-107.9-44.7-139.4-94.2-22.5-35.3-32.4-74.2-29.6-117,3.5-55,22.5-98.3,58.9-134.4,17.7-17.5,35.3-30.2,57.6-41.3,17.7-8.9,46.1-16.7,68.5-18.8,12.6-1.2,42.1-.4,52.5,1.4Z"/>
          <path class="cls-6" d="M336.5,91.6c.2.9,0,3.3-.2,5.1-.4,2.3.3,3.1,2.2,2.3,1.4-.7,4.4-.9,6.7-.5,4.7.8,4.8.9-.3,13.8-2.7,6.6-4.4,9.6-6.1,10.6-1.3.8-2.2,1.6-1.9,1.9.3.2,3.6,1.3,7.5,2.3,5.7,1.4,7,1.5,7.2.4s-.2-1.9-.7-2.3c-1.1-.9,2-16,4.1-20.8,1.3-2.7,4.2-2.2,6.1,1.3,1.6,2.8,2.8,2.9,3.2.2s1.3-2.4,2.7-3.6c1.3-1.3,2.1-2.5,1.6-2.7-1.9-.9-27.6-8.8-29.9-9.2s-2.4,0-2.1,1.3h-.1Z"/>
          <path class="cls-6" d="M313.9,90.3c0,.6,1,1.6,2.3,2.2,2.9,1.4,3.1,1.8,3,10.1v6.2l-2.6-1.9c-1.4-1-4.4-3.9-6.7-6.4-7.7-8.4-10.6-10.4-15.5-10.9s-6.7.9-3.6,4.3c1.3,1.5,2.3,3.5,2.2,4.4s0,5.7,0,10.7-.2,9.3-1.3,10.4c-3.7,3.7-3.5,3.9,3.7,3.8,3.8,0,7.2-.3,7.4-.5s-.7-1.7-1.8-3.5c-1.6-2.2-2.3-4.8-2.3-9.4-.1-3.4,0-6.4.4-6.7.5-.6,6.7,5.3,15.1,14.3,3.5,3.7,6.4,6.1,7.2,5.7,1.2-.3,1.8-3.1,2.8-14.6,1-11.4,1.5-14.4,2.8-15.3,3-2.1,1.8-2.9-5.7-3.5s-7.5-.2-7.6.4l.2.2Z"/>
          <path class="cls-6" d="M272.8,89.2c-1.1.2-6.7,1.1-12.5,2.3-5.7,1.1-11.4,1.9-12.5,1.7-3.4-.5-3.7,1.3-1.1,5.3,1.4,2.2,2.7,6,3,9.2.3,3.1,1.1,7.8,1.7,10.5,1.1,4.6,1.1,5.2-.7,7.1-1,1.2-1.5,2.5-1,2.9.4.4,7.4-1,15.5-3,8-1.8,15.2-3.4,15.8-3.3s.6-1.1,0-3.1c-1-2.6-.9-3.6.2-4.5,2.1-1.9.1-1.6-3.8.6-4.6,2.6-12,4.8-14.7,4.6-1.8-.2-3.9-4-3.6-6.4s5.2-2.4,8.4-2,2.9.2,2.1-1.6c-.3-1.2-.6-3-.5-4.1.3-2.5.4-2.5-3.5-1.2-6.3,2-8.6,1.8-9.5-1.1-1-3.6.7-5,7.2-6.2,3.6-.7,6.5-.6,10.4.4l5.4,1.4-1.3-4.5c-1.5-4.8-1.8-5.2-5-4.9h0Z"/>
          <path class="cls-6" d="M231.1,99.2c-1.2.4-4,1.9-6.5,3.2l-4.3,2.5-1.2,11.8c-1.3,12.7-1.1,12.4-6.2,7.3-1.6-1.6-5-4.3-7.7-6l-4.9-3.2-4.9,3.5c-4.7,3.4-4.8,3.5-2.7,4.5,1.2.7,4.6,6.1,7.7,12.2,4.9,9.7,5.3,11.4,4.2,13.5-2.1,3.7-.9,3.7,5.3-.1,5.3-3.2,5.6-3.6,3.8-4.8-2.6-1.6-8.7-13.1-6.9-12.8s12.1,7.1,13.9,9.2c.7.8,2,1.2,3,1.1,1.6-.4,1.9-1.7,2.9-12.1l1.1-11.7,3.2,6.1c2.8,5.2,3.1,6.5,2.1,9.3l-1.1,3.2,3.1-1.5c1.6-.8,4.9-2.3,7.1-3.3,2.3-1.1,4.2-2.2,4.2-2.6s-1.2-1.1-2.8-1.7c-2.1-.8-3.4-2.4-4.8-6.1-1.1-2.8-3.1-7.3-4.5-10-2.3-4.2-2.5-5.3-1.5-8.5,1.3-4,1.4-4-1.6-2.9h0Z"/>
          <path class="cls-6" d="M409,128.9c0,5.6-.2,6.2-3.1,8.3-1.7,1.3-4.2,4.4-5.5,7s-2.8,4.9-3.4,5.3c-2.1,1.3-.9,5.2,2.6,8.4,1.9,1.8,3.7,3.1,3.8,2.9.1-.1,1-2.4,2-5.1,1-2.6,2.1-4.7,2.5-4.7,2.2,0,3.1,3,3.1,10s.9,10.3,4.7,11.4c1.8.6,2.1.3,2-2.1-.1-1.5,0-5.2.1-8.1l.2-5.2h3.8c4.4,0,7.6-2,9.7-6,2.1-4.1,1.9-7-1-11.1-2.6-3.9-13-12.6-18.2-15.3l-3.3-1.7v6h0ZM421.5,140.5c6.2,6.1-1,12.8-7.9,7.4-3.2-2.5-3.2-3.2-.4-6.9,2.7-3.6,5.1-3.8,8.3-.5Z"/>
          <path class="cls-3" d="M281,131.6c-21.1,3.8-34,7.9-49,15.4-25.5,12.8-45,30.2-61.7,55-24.3,36.3-32.1,80-21.3,120.9,7.5,28.6,23,52.8,47.7,74.6,24.3,21.4,50.9,34.2,80.1,38.5,33.4,4.9,63.3.2,93.7-14.6,21.1-10.3,42-28.8,57.5-51.1,20.4-29.5,27-49.9,27-84.3s-1.7-30.9-7.1-46.8c-10-28.8-26.6-53-49.3-72-12-10-20.3-15.2-35-22.2-22.7-10.8-32.9-13.1-60.1-13.5-11-.2-21.1-.1-22.5.1ZM327.5,139.5c19.7,4,42.5,14.4,59.7,27.2,10.5,7.8,26,23.1,33.3,32.8,5.9,7.9,14.6,24.8,19.6,38,8,21.5,10.2,42.6,6.9,66.8-2.1,14.9-7.7,33.7-11.4,38.5l-2.1,2.7-.6-8c-.3-4.4-.8-8.9-1.1-10s-1.1-4-1.8-6.5c-2-7.5-7.1-12.7-8.5-8.8-.7,2-3.7,22.8-3.8,27-.1,2.1-.5,3.8-.9,3.8-1.1,0-.9-6.3.3-12.5.5-2.8,1.1-7.2,1.4-9.8.2-2.7.8-5.4,1.2-6,.4-.7,0-.6-1,.2-.9.7-1.7,2.5-1.7,4s-.5,4.3-1.1,6.5c-1.7,6.1-1.9,7.5-2.5,17.8-.4,6-.2,10.9.4,12.8.7,1.8.7,2.8.2,2.5-.6-.4-1-.1-1,.4s.6,1.1,1.4,1.1c2.4,0,4.1,7.3,2.3,9.7-1.1,1.5-3.9.5-3-1.1.4-.6-1.1.4-3.3,2.1-2.3,1.8-4.5,2.9-4.9,2.5-.5-.4-.5-.1-.1.6s.1,1.5-.8,1.8-1.6,1.6-1.6,2.9-.9,3-2,4c-2,1.8-2,1.7-2-12.3v-14l-4.1-3.6c-6.3-5.4-10-6.2-15.2-3.7-2.3,1.2-5.4,3.2-7,4.4-1.8,1.5-2.9,7.8-3.3,18.7-.4,9.1-1,16.7-1.5,16.8-.5.2-.7.7-.5,1.1.3.4-.8.6-2.3.3-3.2-.4-3.7-2-4-15.1-.2-8.1-1-10.5-4.2-12.2-1.8-.9-2.6-.7-4.8,1.5-2.3,2.4-2.7,3.6-3.1,11.9l-.5,9.2h-4.3c-6.7.1-7.2-1.4-7.2-20.2s.6-23,3.1-23.6c1-.3,2.1-1.8,2.4-3.3.4-1.6,1.3-4.2,2.2-5.8,1.1-2,1.2-3,.4-3.5-.6-.4-7-3.9-14.1-7.7-12.5-6.7-12.9-7-13-10.2,0-4.6-2.2-11.2-3.7-11.2s-1.3-1.1-1.3-2.5-.7-2.8-1.5-3.1c-1.3-.5-1.5-6.4-1.5-44.1v-43.4l14.3.4c7.8.2,15.2.7,16.3,1.1,1.7.6,2.3.3,2.8-1.7.3-1.4,2.6-4.3,5.1-6.5s4.5-4.6,4.5-5.3-2.6-4-5.7-7.2c-4.9-5.1-6-5.8-8.2-5.1-1.4.4-8.6.9-15.8,1.1l-13.3.4v-12.5c0-6.8.4-13.6,1-15,.8-2.3.4-3-4.3-7.5-2.9-2.8-5.9-5.1-6.8-5.1s-3.8,2.2-6.5,4.9l-4.9,4.9.3,15.1.4,15.1h-12.2c-6.8,0-13.9-.5-15.9-1.1-3.5-1-3.7-.9-9.3,4.5-3.2,3-5.8,6.2-5.8,7.1s2.3,4,5,6.9c2.8,2.9,5,5.9,5,6.6s.8,1,2.8.5c1.5-.4,8.9-1,16.5-1.2l13.7-.5v43.1c0,27.6-.4,43.2-1,43.6-.5.3-1,1.8-1,3.2s-.7,2.7-1.9,3c-1.5.4-2.1,1.7-2.6,6.2-.3,3.1-.5,6.3-.3,7.1.2.9-4,3.7-11.8,7.9-6.7,3.6-13.2,7.3-14.4,8.2-2.3,1.5-2.3,1.6-.5,4.2,1,1.5,2.1,4.2,2.4,6,.5,2.3,1.3,3.3,3,3.5l2.2.4-.3,21.3c-.3,18.7-.5,21.7-2,23.2-1.4,1.3-2.3,1.5-4.5.7-2.7-.9-2.8-1.2-3.5-10.9-1-12.7-1.4-14.2-3.9-15.6-1.8-.9-2.6-.7-4.7,1.4-2.3,2.4-2.6,3.4-2.6,10.9-.1,6.6-.4,8.3-1.6,8.4-.8.1-2.1.2-2.9.3-.7,0-1.1.7-.8,1.3.2.7.1,2.2-.4,3.3-.6,1.7-.8,1.6-.8-.9-.1-1.7-1.1-3.8-2.6-5.2-2.1-1.9-2.5-3.2-2.5-8s-.4-6-1.7-7c-1.5-1-2-3.9-2.9-15.1-1.1-13.9-4.2-42-5-46-.2-1.3-1.6-2.5-3.5-3.2-4.1-1.4-5.1-1.4-7.3.2-2,1.5-2.8,6.3-5.6,37.2-2.1,22.1-2.9,26.5-5,26.5s-1,3.1-1,6.8-1.2,7.4-3.5,8.5c-2.6,1.2-3.6,1.3-4.1.4-.4-.7-.4-.9,0-.5.4.3,1.6-.1,2.5-1,1.8-1.7,1.8-3.2,0-3.2s-.8.4-.4.9c.3.5.1,1.2-.3,1.5-1.2.7-5.4-2.3-4.7-3.4.3-.4-.2-1-1-1.4-.8-.3-1.5-1.4-1.5-2.4,0-1.5.6-1.8,3.3-1.4,2.5.3,3,.2,2-.8-.6-.7-2.2-1.3-3.5-1.4-2-.1-2.3-.7-2.6-4.5-.2-3.2.2-4.9,1.6-6.5,3-3.3,3.4-5.5,2.1-13.2-1.3-8.2-3.9-13.4-6.7-13.4s-2.1,1.2-3,6.7l-1.1,6.8.5-6c.5-8.2-1.2-5.1-3,5.2-1.2,6.8-1.2,8.2.2,11.3.8,1.9,1.4,3.8,1.4,4.3-.1.4.4.6,1,.5,1.6-.4,2.4,5,1,6.4s-1.9-.6-3.5-3.4c-12.4-21-15.2-27.2-19.8-44.8-6.6-25.2-4.6-57.2,5.2-82.5,6.1-15.7,12.7-27.2,23.4-41,24.4-31.3,61.1-51.9,101.5-56.9,7.4-.9,34.7.3,42.5,1.9h0ZM301.7,154c-.7.3-2.6,1.5-4.1,2.7-2.4,1.9-2.7,2.5-1.6,3.8.9,1.1,1.5,6.1,1.7,15.3.3,9.6.9,14.4,1.9,15.9.8,1.3,1.1,2.3.7,2.3-5.9.3-39.9-.2-40.5-.6-.5-.3-.4-1.2.3-2,.9-1.1,4.6-1.4,17.6-1.4h16.4v-16.7c-.1,0-.3-16.7-.3-16.7l2.7-3.4c2.6-3.2,2.8-3.3,4.7-1.6,1.5,1.4,1.6,1.9.5,2.4h0ZM260,188.5c0,.3-1,1.9-2.2,3.5l-2.2,3,2.2,2.3c4.3,4.6,2.2,5-2.7.6l-3.3-3.1,3.3-3.3c3.3-3.1,4.9-4.1,4.9-3ZM338.9,191.3c.9,1.2-1.8,1.5-15.5,2-9.7.4-17.3.3-18.2-.2-1.5-.8-1.5-1-.2-1.5,2.5-.9,8-1.3,20.6-1.4,9.1-.2,12.4.1,13.3,1.1h0ZM297.9,214.2c-.4,7.9-.7,26.9-.8,42.3-.2,30.7-.2,31.7-1.9,32.3-.9.3-1.2-10.2-1.2-41.8s.1-42.3,1.8-44.5c.9-1.4,1.9-2.5,2.2-2.5s.2,6.4-.1,14.2h0ZM306,297c0,.6-3.3,1-8,1s-8-.4-8-1,3.3-1,8-1,8,.4,8,1ZM213.6,304.3c-.3,1.3-1.2,13.8-2.1,27.8-1.7,28.7-2,30.9-4.2,30.9s-1.5-1.1-.9-7.8c.3-4.2,1.3-16,2.1-26.2,1.6-20,2.2-23.8,3.7-25.8,1.6-1.8,2.1-1.5,1.4,1.1ZM309,304c0,1-1.7,1.5-8.5,2.4-2.2.3-6.2,1.7-8.9,3.1s-5.1,2.3-5.4,2c-.3-.2.6-.9,1.9-1.4,1.7-.7,1.9-1,.7-1-1.8-.1-2.6-4-1.1-5.4,1-1.1,21.3-.8,21.3.3ZM306.6,315.7c15.1,6.9,35.2,19.2,27.4,16.8-1.4-.4-9.6-4.4-18.2-8.9l-15.7-8.1-17.5,9c-10.6,5.4-17,9.2-16.3,9.7.7.4,16.9.7,36.1.7s35.1.3,35.4.6c1.6,1.6-4.3,2-38.4,2.5-34.9.5-37.5.4-38-1.2-1.2-3.9.7-5.2,24.6-17.4,6.8-3.5,13-6.4,13.6-6.4s3.8,1.2,7,2.7h0ZM303.3,327.7l3.2,1.6-3,.8c-4.5,1.3-15.1,2.3-14.3,1.4.6-.6,9.3-5.1,10.6-5.4.2-.1,1.7.7,3.5,1.6h0ZM176.7,350.2c-.3.7-.5.2-.5-1.2s.2-1.9.5-1.3c.2.7.2,1.9,0,2.5ZM311.4,349.5c4.8,3.2,5.6,6.1,5.6,21.5v14.1l2.3-.7c2.4-.8,2.6-.8,8-.6,6.7.3,3.9,2.2-3.3,2.2s-7,.1-7.6,2.7c-1,4.1-1.4,4.5-3,3.2-1.1-.9-1.4-4.7-1.4-17.6s-.4-17.3-1-18.4c-2.5-4.5-12.2-6.4-18-3.4-5.6,2.9-6,4.4-6,22.8s-.2,16.9-1.5,17.4c-.9.3-1.9.2-2.3-.2-1-.9-1.5-26.9-.7-32.4.5-3.4,1.5-5.2,4.7-8,2.2-2,4.9-3.9,6.1-4.3,3.9-1.3,15.1-.2,18.1,1.7h0ZM383,351.5c-1.3,1.3-3.8,3.5-5.6,4.7l-3.4,2.3v14c0,14.2-.5,18.5-2.1,18.5s-.9-7.6-.9-17v-16.9l5.3-4c2.8-2.3,6.1-4.1,7.1-4.1,1.8,0,1.8.2-.4,2.5ZM271.4,365.2c-.1,13.8-.6,17.4-2.4,16.3-1.1-.7-1.4-26.2-.4-29,.4-.9,1.2-1.4,1.8-1.2.7.3,1.1,4.7,1,13.9h0ZM326,365.4c0,11.5-.5,14.6-2.1,14.6s-1.2-24.3-.2-25.3c1.8-1.9,2.3.3,2.3,10.7h0ZM219,366c0,.6-3.7,1-9,1s-9-.4-9-1,3.7-1,9-1,9,.4,9,1ZM412,373.5c-1.3,1.6-3,1.1-3-.8s.4-.6,1,.3,1.1,1.1,1.7-1c.3-1.3.8-1.9,1.1-1.2.2.7-.2,1.9-.8,2.7h0ZM208.8,373.4c-1.4,1.3-2.8,3.2-3,4.2-.2,1.1-1.3,2-2.6,2.2-2,.3-2.2-.1-2.2-4.2v-4.6h10.5c0,.1-2.7,2.4-2.7,2.4ZM220.5,381.9c2.3.6,1,.9-5.5,1.5-14.6,1.2-15.7,1.5-15.6,3.8.1,3.2-1.7,3.1-3.6-.2-1.8-3.2-1.5-3.7,3-5,3.3-1,17.6-1,21.7-.1h0ZM276,384c2.1,1.3,1.2,1.8-5.8,2.6-5.4.6-6.2.5-5.6-.9.5-1.4,2.3-1.9,8.4-2.5.8-.1,2.2.2,3,.8ZM281,393c.8.5,1.3,1,1,1.1-.3,0-4.9.4-10.2.8-9.6.7-11.9,1.3-10.4,2.8.4.5,16,.8,34.6.8,30.4.1,36.4.4,34.9,2-.3.2-16.3.5-35.6.7l-35.1.3-.4-3.9c-.3-3.1,0-4,1.7-4.6,2.8-1.2,17.7-1.2,19.5,0h0ZM310.5,392.9c2.2.4,5.2.4,6.6.1,3.5-1,19.2.1,15.9,1.1-3.8,1.1-47,1.1-47,0,0-1.7,17.5-2.6,24.5-1.2ZM247.9,395.4c-.7.7-18.7,1.9-30.8,2-8,0-11.6-.3-11.8-1.1-.3-.9,5.1-1.2,21.3-1.3,12,0,21.6.2,21.3.4ZM378.5,395.8c2.3.7.4,1-8,1.5-13.5.9-19.7,1.7-21,2.7-1.3,1.1-4.5-1.3-4.5-3.3s2.1-1.6,15.3-1.6c8.3-.1,16.6.3,18.2.7h0ZM384.7,396.6c-.3.3-1.2.4-1.9.1-.8-.3-.5-.6.6-.6,1.1-.1,1.7.2,1.3.5ZM333.1,405.9c4,1.5-15.8,2.3-47.3,1.9-24.8-.3-28.8-.5-28.8-1.8s4.7-1.5,36.9-1.3c20.3.2,37.9.7,39.2,1.2h0ZM337,412.6c2.8.7,1,1-9,1.5-16.3.8-74.6.6-75.5-.3s-.4-1.1-.1-1.6c.7-1.2,79.7-.8,84.6.4ZM322,418.9c0,1.1-16.5,1.4-53.5,1.1-10.5-.1-16.2-.5-15-1,2.7-1.2,68.5-1.3,68.5-.1Z"/>
          <path class="cls-3" d="M257.3,264.7c1.5.2,3.9.2,5.5,0,1.5-.2.2-.4-2.8-.4s-4.3.2-2.7.4Z"/>
          <path class="cls-3" d="M213,274.7c0,4.4-1.3,5.5-5.6,5.1-3.6-.3-3.9-.1-4.2,2.4-.3,2.7-.2,2.8,4.2,2.8h4.6v5c0,4.7.2,5,2.5,5s2.5-.3,2.5-4.9v-5l4.8-.3c4.3-.3,4.7-.5,4.7-2.8s-.3-2.5-4.2-2.2l-4.3.3v-4c0-3.7-.2-4.1-2.5-4.1s-2.5.5-2.5,2.7Z"/>
          <path class="cls-3" d="M253.8,274.7c.7.3,1.6.2,1.9-.1.4-.3-.2-.6-1.3-.5-1.1,0-1.4.3-.6.6h0Z"/>
          <path class="cls-7" d="M412.5,276.7c.2,1,.4,2.1.4,2.4.1.4.7.9,1.5,1.2,1.7.7,1-2.7-.9-4.3-1-.9-1.3-.7-1,.7h0Z"/>
          <path class="cls-3" d="M263.8,285.7c.7.3,1.6.2,1.9-.1.4-.3-.2-.6-1.3-.5-1.1,0-1.4.3-.6.6Z"/>
          <path class="cls-7" d="M166.1,293.8c5.3,2.5,9.2,5.9,8.3,7.3-.4.7-.3.9.3.6.6-.4,1.3.2,1.6,1.3s1,2,1.6,2c1.6,0-2.7-6.6-6.5-10-2.1-1.8-4.5-3-6.2-2.9-2.6,0-2.6.1.9,1.7h0Z"/>
          <path class="cls-3" d="M178.1,307.6c0,1.1.3,1.4.6.6.3-.7.2-1.6-.1-1.9-.3-.4-.6.2-.5,1.3Z"/>
          <path class="cls-7" d="M441.5,312.1c-.4.6-.5,1.2-.2,1.5.2.3.7-.2,1-1.1.7-1.7.1-2-.8-.4Z"/>
          <path class="cls-3" d="M438.5,329c-.3.5-.1,1,.4,1s1.1-.5,1.1-1-.2-1-.4-1c-.3,0-.8.4-1.1,1Z"/>
          <path class="cls-3" d="M413.3,362.1c.3.9,0,2.2-.6,2.8s-.9,1.1-.6,1.2c.2,0,1.4.2,2.7.5,1.9.3,2.1.1,1.3-1.4-.6-.9-1.5-2.4-2.2-3.2-.9-1.3-1-1.3-.6.1h0Z"/>
          <path class="cls-3" d="M193.9,372.7c-1.3,1.6-1.2,1.7.4.4.9-.7,1.7-1.5,1.7-1.7,0-.8-.8-.3-2.1,1.3h0Z"/>
          <path class="cls-3" d="M188.4,373.3c-.4.7-.4.9.1.5.4-.4,1.4,0,2.1,1,1.2,1.5,1.3,1.5,1.4.1,0-2.1-2.7-3.2-3.6-1.6Z"/>
          <path class="cls-3" d="M365.5,384c.3.5.8,1,1.1,1s.4-.5.4-1-.5-1-1.1-1-.7.4-.4,1Z"/>
          <path class="cls-6" d="M440.6,154.8c-.7,3.5-1.3,4.1-6.3,7.6-2.3,1.5-5.7,5-7.4,7.7-1.7,2.8-4,5.4-5,6-1.8.9-1.8,1.1.7,4.9,2.9,4.4,5.4,5.2,5.4,1.8s3.5-5.6,11.2-13c7.4-7.2,10.5-11.5,9.2-12.9-1-1.2-3.1-2.7-4.5-3.5-2.5-1.3-2.7-1.2-3.3,1.4h0Z"/>
          <path class="cls-6" d="M445.5,177.9c-6.7,3.1-8.9,6.2-9.3,13.4-.3,5.5,0,6.9,2.8,12.2,7.1,13.2,11.1,15.7,21.7,13.4,5.7-1.3,13.7-5.9,15.2-8.8,2.6-4.7-3.6-21-9.8-26.2-7.5-6.1-13.5-7.3-20.6-4h0ZM461.8,186.6c6.1,4.7,7.7,12.9,3.5,17.7-2.2,2.4-7.7,4.7-11.3,4.7s-7.6-3.7-9-7.5c-.6-1.5-1-4.4-1-6.5,0-3.2.7-4.7,4-8.1,3.5-3.7,4.3-4.1,7.1-3.5,1.8.3,4.8,1.8,6.7,3.2h0Z"/>
          <path class="cls-6" d="M145.4,166.2c-6.3,3.5-10.8,9.9-13,19.1-2.4,9.1-1.5,15.2,2.6,20.5,7.5,9.4,20.8,6.7,29.5-5.9,4.7-6.7,7.3-15.2,5.6-18.5-1.3-2.7-4.9-2.4-4.3.4,1.6,6.8-.7,11.3-8.1,16-4.5,2.7-5.5,3.1-9.9,2.3s-9.1-4.5-9.4-10.3c-.4-9.7,6.4-18.8,13.1-17.5s3.4-1.9,1.7-5.6c-1.4-3.2-2.6-3.3-7.7-.5h-.1Z"/>
          <path class="cls-7" d="M117.7,252.8c-2.7,2.8-2.7,2.9-.9,4.5,3.4,3.1,9.2,1.6,9.2-2.3s-3-5-4.6-5-2.2,1.3-3.7,2.8h0Z"/>
          <path class="cls-7" d="M475,252.6c-1.8,3.3-.3,5.8,3.7,6.2,1.9.2,3.5-.4,4.8-1.8,1.8-2,1.8-2.1-.5-4.5-3.1-3.2-6.3-3.2-8,.1h0Z"/>
          <path class="cls-1" d="M114.5,269.1c-1.6,1-3,2.3-2.9,2.9.3,2.7.5,3,2.3,3s3.1,2.5,3.1,7.4v2.8l-2.9-3.1c-3.7-3.9-5.3-3.9-9.8.3-3.7,3.3-3.7,3.4-1.9,6,2.6,4,5.9,5.2,8.7,3.2,1.3-.9,3.2-1.6,4.3-1.6,1.6,0,1.8.5,1.2,4.2-.4,2.4-1.4,4.6-2.1,5.1-2.1,1.1-1.9,3.4.4,4.6,1.4.8,2,2.6,2.4,7.8.7,7.5,6.6,30,9.6,36.9,1.2,2.6,2.7,4.4,3.6,4.4,2,0,1.6-2.1-2.7-15.4-3.2-9.8-6.8-25.5-6.8-29.7s.7-3.2,1.5-3.9,1.5-1.7,1.5-2.2-.7-1.6-1.5-2.4c-.8-.9-1.5-3-1.5-4.9,0-2.9.4-3.3,3-3.7,1.7-.3,3.9.2,5,.9,1.8,1.3,2.3,1.1,5-1.6s3.7-4.1.5-7.9c-3.6-4.3-6-4.6-10.1-1l-3.4,3v-4.6c0-4.2.2-4.6,2.5-4.6,3.7,0,3.3-3.5-.7-6-4-2.4-4.5-2.4-8.3.1h0ZM113.5,285.4c1.8,1.3,1.7,1.4-1.4,2.1-3.7.8-4.6.3-3.8-2,.8-1.9,2.7-1.9,5.2-.1ZM129.7,285.5c.8,2.2.1,2.6-3.6,1.9-2.9-.6-3-.8-1.4-2,2.4-1.8,4.2-1.7,5,.1Z"/>
          <path class="cls-1" d="M476.7,269.1c-4.3,2.3-4.7,5-.7,5.9,2.1.5,2.5,1.2,2.8,4.8.3,4.4-.7,5.3-2.9,2.6-.7-.9-2.4-2-3.7-2.5-3-1.1-6.7,1-8.4,4.7-1,2.1-.8,2.8,1.7,5.4,3.2,3.4,4.7,3.7,6.5,1.4.8-.8,2.5-1.4,3.9-1.2,2.2.3,2.6.9,2.9,4,.2,2.9-.1,3.9-1.7,4.8-2.6,1.4-2.7,3.1-.1,5.3,1.1.9,2,2.3,2,3,0,6.1-7.1,31.1-11.1,38.9-2.4,4.7-2.4,5.8.1,5.8s2.6-1.3,3.9-3.8c3.2-6.3,9.1-26,10.7-35.6,1.7-9.9,1.8-11.1.8-17.3-.6-4.1-.6-4.2,2.8-4.5,1.8-.2,4.3.3,5.5,1,2.6,1.6,3.5,1.2,6.3-2.8l2-2.9-3.1-3.5c-3.7-4.3-6.6-4.6-10.8-1l-3.1,2.6v-4.5c0-4,.3-4.6,2.2-4.9,3.6-.5,3.3-3.3-.5-5.7-4.1-2.5-3.3-2.5-8,0h0ZM475.8,287.1c-1.6,1-5.2,1.2-6.1.2-.4-.3-.2-1.2.4-1.9.8-.9,1.8-1,4.1-.2,2.2.8,2.6,1.3,1.6,1.9ZM492,285.9c0,2.3-1.6,3.6-2.5,2.1s-1.8-1-3.3-1h-2.7c0-.1,2.5-1.5,2.5-1.5,3.6-2,6-1.9,6,.4Z"/>
          <path class="cls-3" d="M462.2,336.2c-2.6,2.6-.8,5.8,3.3,5.8s2.9-3.8,1.5-5.5c-1.5-1.8-3.2-1.9-4.8-.3Z"/>
          <path class="cls-3" d="M131.6,337.6c-.9,2.2,1.3,4.6,3.8,4.2,1.5-.2,2.2-1.2,2.4-3.1.3-2.4,0-2.7-2.6-2.7s-3.2.6-3.6,1.6h0Z"/>
          <path class="cls-3" d="M116.2,338.1c-2.7,1-2.6,3.6,0,5.3,1.2.8,2.2.8,3.5,0,4.1-2.6,1.1-7.1-3.6-5.3Z"/>
          <path class="cls-3" d="M478.4,339.5c-.9,2.3.3,4.5,2.4,4.5s4.4-2.3,3.6-4.4c-.8-2-5.3-2.1-6-.1Z"/>
          <path class="cls-7" d="M130.2,357.3c-.9,1-.8,1.8.1,3.2,1.9,2.5,5.9,1.2,5.5-1.8-.4-2.6-3.9-3.5-5.6-1.4h0Z"/>
          <path class="cls-7" d="M462.9,357.6c-1.4,1.7-.5,4.2,1.7,5.1,2,.7,4.7-1.9,3.9-3.9-.9-2.2-4.2-2.9-5.6-1.2Z"/>
          <path class="cls-6" d="M155,365.4c0,1.7-1.2,3.4-3.7,5.3-2.1,1.5-6.5,5.1-9.9,8s-6.6,5.3-7.1,5.3-1.5.6-2.1,1.3c-.8.9.1,3,3.4,8,5.6,8.5,8,10,15.3,10s13.3-3.2,16.8-9.1c3.7-6.3,2.9-10.3-4.8-21.8-3.5-5.2-6.7-9.4-7.1-9.4s-.8,1.1-.8,2.4h0ZM160.1,378.2c4.5,5.5,3,12.7-3.4,16.7-5.7,3.5-10.8,2.6-14.2-2.5-1.7-2.6-1.7-2.7,2.2-6.6,3.2-3.4,11.8-9.8,13.1-9.8s1.2,1,2.3,2.2h0Z"/>
          <path class="cls-6" d="M441.7,369.5c-7.8,2.7-12,8.9-12,17.5s6.7,18,17.9,18,10.6-2.1,14.3-7.5c2.7-3.9,3.7-12,2.2-16.7-1.5-4.6-7.7-10.4-12.6-11.7s-5.1-1.3-9.8.4h0ZM452.8,379.2c6.9,7.2,7.3,14.1,1.1,17.3-6.3,3.3-14.8-1-17-8.6-1.4-4.7,0-8.2,4.1-10.4,4.4-2.4,8.3-1.8,11.8,1.7Z"/>
          <path class="cls-6" d="M176.8,394.4c-1.9,3.6-17.5,17.6-20.9,18.8-1.6.5-2.9,1.4-2.9,1.8s4.1,4.9,9.1,9.9l9,9.1,4-3.2c2.1-1.7,3.9-3.5,3.9-4s-1.6-.8-3.5-.8c-2.8,0-4.5-.9-7.8-4l-4.2-3.9,3.1-3.1,3-3.1,2.7,2.7c1.5,1.5,2.7,3.6,2.7,4.8,0,1.8.5,1.6,3.8-1.8,2.5-2.6,3.3-4,2.4-4.3-.7-.3-2.5-1.6-4-2.8l-2.7-2.3,2.4-2.6c1.4-1.4,2.8-2.6,3.2-2.6,1.9,0,6.9,5.4,6.9,7.5,0,4.2,2.3,4.7,5.2,1.1l2.6-3.3-8.3-8.2-8.4-8.1-1.3,2.4Z"/>
          <path class="cls-6" d="M415.3,401.3c-3.5,1.3-19.2,13.6-19.3,15.1,0,.5,1.3.6,2.9.3,2.7-.6,3.6.1,10.6,8.1s9.8,12.8,7,14.9c-1.7,1.2-1.7,1.3-.2,1.3,5.6,0,17.7-9.6,20.8-16.5,4.8-10.6.7-19.5-10.5-23-5.8-1.8-7-1.8-11.3-.2h0ZM427.2,411.9c5.5,5.1,5.8,9.5.9,14.5l-3.4,3.5-2.5-3.2c-1.4-1.8-4.8-5.6-7.6-8.5l-5.1-5.3,2.8-2.5c4.5-3.9,9.8-3.3,14.9,1.5h0Z"/>
          <path class="cls-6" d="M199,414.3c0,1.2-2.2,5.4-5,9.2-7.6,10.8-9.1,12.6-11.7,13.8-1.2.5-2.3,1.3-2.3,1.6.1.6,3.4,3.1,16.3,12.2l5,3.5,3.4-3.7c4.5-5,4.5-7.1-.1-5.7-2.8.9-4,.8-6.7-.8-5.3-3.1-5.5-4.3-1.8-10.4,4.7-8,9.8-14,11.7-14s.2-1.4-2.8-4c-5.2-4.6-6-4.8-6-1.7h0Z"/>
          <path class="cls-6" d="M382.7,424.3c-.6,1.7.8,14.7,2.7,24.5.8,4,1.2,8.1.9,9.1-.6,2.5.5,3,4.5,1.9,3.5-.9,4.3-3.6,1.7-5.8-.8-.7-1.5-2-1.5-2.9,0-1.7,6-6.1,8.3-6.1s5,3.7,4.4,5.4c-.5,1.2.3,1.1,4.1-.5,5.4-2.3,7.2-3.7,7.2-5.3-.1-.6-3.1-3-6.8-5.4s-10.3-7-14.7-10.2c-8.4-6.2-10-6.9-10.8-4.7h0ZM392.8,437.8c2.1,1.4,2.2,1.6.6,3.3-3.1,3.4-5.3,1.5-5.4-4.4,0-1.9.2-1.8,4.8,1.1Z"/>
          <path class="cls-6" d="M350.8,437.8c-7.6,2.6-9.3,4.2-6.4,5.9.8.4,3.2,6.1,5.3,12.6,3.1,9.5,3.6,12,2.6,12.9-1.5,1.2-1.7,3.4-.4,4.2,1.8,1.2,18.5-5.5,22-8.7,8-7.6,8.2-17.5.4-24.9-5.8-5.5-11.7-6-23.5-2ZM366.2,442.1c2.5,1.3,5.8,8.4,5.8,12.4s-2.1,6.4-6.2,9c-3.9,2.4-5.4,1.4-6.8-4.7-.7-2.9-2.2-7.5-3.3-10.2-2-4.7-2-4.9-.2-6.2,2.3-1.7,7.8-1.8,10.7-.3h0Z"/>
          <path class="cls-6" d="M238.7,438.4c-10.1,3.7-14.5,14.2-9.8,23.4s15.4,13.7,23.1,9.7c2.5-1.3,5-4.2,5-5.8s-3.4-1.5-5.5-.1c-3.4,2.2-9,1-12.7-2.6-2.3-2.3-2.8-3.7-2.8-7.5,0-8.2,3.8-12.7,10.7-12.7s7,2.3,8.8,6.6l1.3,2.9,2.6-4.1c3.1-4.9,3.6-6.8,1.8-6.4-.8.1-2.9-.7-4.8-1.8-4.3-2.7-12.7-3.5-17.7-1.6Z"/>
          <path class="cls-6" d="M332,443.1c-2.5.5-5.3.7-6.2.5-2.7-.6-2.1,1.3.7,2.6,2.6,1.2,3.8,4.1,5.1,12.5.4,2.5.3,4.3-.3,4.3s-2.5-1.6-4.4-3.6c-1.8-1.9-6.5-5.9-10.4-8.9-6.7-5-7.2-5.2-11.5-4.6l-4.4.6,2.5,1.6c2.2,1.5,2.6,2.8,3.7,11.5,1.6,12.8,1.5,15.9-.3,17.4-2.7,2.2-1.6,3,4.4,3s8.5-1.4,5.2-3.9c-1.7-1.3-2.3-3.2-3-9.1-.5-4.1-.7-7.7-.5-7.9.3-.3,3.8,2.4,17.1,13.6,4.6,3.9,6.7,5,8.3,4.6,2.5-.7,2.5-1.6-.6-20.2-1.5-8.8-1.5-9.7.1-12.3,1.2-2.1-.6-2.6-5.5-1.7h0Z"/>
          <path class="cls-6" d="M276,445.1c-12.8,3.8-17.6,18.1-9.4,27.9,7.9,9.4,21.2,9.7,28.9.8,6-7.1,5.9-15.1-.2-21.9-5.9-6.5-12.4-8.8-19.3-6.8ZM285.8,451.6c5.4,3.8,6.8,12.7,2.9,18.5-1.9,2.8-3,3.5-6.3,3.7-5.1.4-8.9-2.4-10.5-7.9-3.1-10.1,6.2-19.7,13.9-14.3h0Z"/>
          <path class="cls-6" d="M177.8,132.4c-.9.7-5.4,4.2-9.9,7.9s-9.1,7.1-10.2,7.5c-3.2,1.2-2.6,2.9,1.5,5.2,2.3,1.3,5.3,4,7,6.6s4.7,6.4,6.5,8.4c3.1,3.5,3.5,4,2.8,6.5-.3,1.5,0,2.9.5,3s6-4.4,12.3-10c6.2-5.4,11.7-10.2,12.3-10.4s0-1.3-1.6-2.7c-2.1-1.8-2.5-2.7-2-4.1.9-2.7-.7-1.5-3.1,2.3-2.8,4.5-8.2,10-10.8,11-1.7.6-5.3-1.6-6.2-4s3.4-4.6,6.5-5.8,2.6-1.2,1.1-2.4c-.9-.9-2-2.4-2.4-3.4-.9-2.3-.8-2.4-3.6.6-4.6,4.7-6.7,5.7-8.9,3.6-2.6-2.6-1.8-4.7,3.4-8.9,2.8-2.4,5.5-3.7,9.4-4.6l5.4-1.3-3.3-3.3c-3.6-3.6-4.1-3.7-6.7-1.9v.2Z"/>
        </g>
        <g id="Capa_3">
          <g>
            <path class="cls-6" d="M175.7,235.4v-8.8h-.9c-.3,0-.5,0-.6-.1s-.2-.2-.2-.3,0-.2.2-.3.3-.1.6-.1h6c.9,0,1.8.1,2.6.4.8.3,1.4.6,1.8.9.7.6,1.2,1.1,1.6,1.8.3.5.4,1,.4,1.6v1c0,.8-.3,1.5-.8,2.2s-1.3,1.3-2.5,1.9c-.9.4-1.9.6-3,.6h-6c-.3,0-.5,0-.6-.1s-.2-.2-.2-.3,0-.2.2-.3.3-.1.6-.1h.9-.1ZM176.8,235.4h4.1c.9,0,1.8-.2,2.6-.6s1.4-.9,1.8-1.5.6-1.1.6-1.7v-1.3c0-.5-.1-.9-.3-1.2-.3-.5-.8-1-1.4-1.5-.3-.3-.8-.5-1.4-.7-.6-.2-1.3-.3-2-.3h-4.1v8.8h0Z"/>
            <path class="cls-6" d="M192.8,231.2v4.2h8.6v-2.2c0-.2,0-.3.2-.4s.2-.1.4-.1.3,0,.4.1.2.2.2.4v2.9h-12.3c-.3,0-.5,0-.6-.1s-.2-.2-.2-.3,0-.2.2-.3.3-.1.6-.1h1.5v-8.8h-1.5c-.3,0-.5,0-.6-.1s-.2-.2-.2-.3,0-.2.2-.3.3-.1.6-.1h11.8v2.5c0,.2,0,.3-.2.4s-.2.1-.4.1-.3,0-.4-.1c-.1,0-.2-.2-.2-.4v-1.8h-8v3.8h4v-.8c0-.2,0-.3.2-.4s.2-.1.4-.1.3,0,.4.1.2.2.2.4v2.4c0,.2,0,.3-.2.4s-.2.1-.4.1-.3,0-.4-.1-.2-.2-.2-.4v-.8h-4v.2Z"/>
            <path class="cls-6" d="M216.8,226.6v-.2c0-.2,0-.3.2-.4.1,0,.2-.1.4-.1s.3,0,.4.1.2.2.2.4v1.9c0,.2,0,.3-.2.4s-.2.1-.4.1-.3,0-.4-.1-.2-.2-.2-.3c0-.5-.4-.9-1.2-1.3s-1.7-.6-2.8-.6-2.2.2-2.9.6-1.1.9-1.1,1.5.1.6.3.8.5.4.8.6c.3.1.7.3,1.1.4s1.1.2,2,.3c1.5.2,2.6.3,3.1.5.8.2,1.4.5,1.7.9s.6.9.6,1.4c0,.8-.5,1.6-1.5,2.2-1,.6-2.4.9-4.1.9s-3.5-.4-4.7-1.2v.4c0,.2,0,.3-.2.4s-.2.1-.4.1-.3,0-.4-.1-.2-.2-.2-.4v-2c0-.2,0-.3.2-.4s.2-.1.4-.1.3,0,.4.1.2.2.2.3c0,.5.5,1,1.3,1.5s1.9.7,3.3.7,2.5-.2,3.3-.7,1.2-1,1.2-1.6-.2-.7-.5-1-.8-.5-1.4-.7c-.4-.1-1.3-.3-2.7-.4-1.9-.2-3.2-.5-4-.9s-1.2-1-1.2-1.8.5-1.4,1.4-2,2.2-.8,3.7-.8,2.9.3,4,1l.3-.4Z"/>
            <path class="cls-6" d="M229.7,226.6v8.8h3.8c.3,0,.5,0,.6.1.1,0,.2.2.2.3s0,.2-.2.3c-.1,0-.3.1-.6.1h-8.8c-.3,0-.5,0-.6-.1s-.2-.2-.2-.3,0-.2.2-.3.3-.1.6-.1h3.8v-8.8h-3.8c-.3,0-.5,0-.6-.1s-.2-.2-.2-.3,0-.2.2-.3.3-.1.6-.1h8.8c.3,0,.5,0,.6.1.1,0,.2.2.2.3s0,.2-.2.3c-.1,0-.3.1-.6.1h-3.8Z"/>
            <path class="cls-6" d="M251,236.1h-1.4l-8.2-9.2v8.5h2.1c.3,0,.5,0,.6.1s.2.2.2.3,0,.2-.2.3-.3.1-.6.1h-4.1c-.3,0-.5,0-.6-.1s-.2-.2-.2-.3,0-.2.2-.3.3-.1.6-.1h.9v-8.8h-1.5c-.3,0-.5,0-.6-.1s-.2-.2-.2-.3,0-.2.2-.3.3-.1.6-.1h2.9l8.2,9.2v-8.5h-2.1c-.3,0-.5,0-.6-.1s-.2-.2-.2-.3,0-.2.2-.3c.1,0,.3-.1.6-.1h4.1c.3,0,.5,0,.6.1s.2.2.2.3,0,.2-.2.3-.3.1-.6.1h-.9v9.5h0Z"/>
            <path class="cls-6" d="M267.9,232.3v3.2c-.9.3-1.7.5-2.5.7s-1.7.2-2.5.2c-1.2,0-2.3-.1-3.2-.4s-1.7-.6-2.3-1-1.1-.9-1.5-1.4-.5-1.2-.5-2v-1.4c0-.8.3-1.6.9-2.4.6-.8,1.4-1.3,2.5-1.8,1.1-.4,2.2-.6,3.4-.6,1.8,0,3.3.3,4.6,1v-.5s0-.1.2-.2.2,0,.3,0,.3,0,.4.1.2.2.2.4v1.7c0,.2,0,.3-.2.4s-.2.1-.4.1-.3,0-.4-.1-.2-.2-.2-.4c0-.5-.5-.9-1.5-1.2-.9-.3-1.9-.5-3-.5s-2,.1-2.8.4-1.6.9-2.3,1.7c-.5.5-.7,1.2-.7,1.9v1.3c0,1.2.6,2.2,1.7,2.9s2.7,1.1,4.7,1.1,1.3,0,1.9-.1,1.3-.3,2-.5v-2.7h-3.8c-.3,0-.5,0-.6-.1-.1,0-.2-.2-.2-.3s0-.2.2-.3c.1,0,.3-.1.6-.1h5.4c.3,0,.5,0,.6.1s.2.2.2.3,0,.1-.1.2h-.2c0,.1-.4.1-.8.1v.2Z"/>
          </g>
          <g class="cls-4">
            <text class="cls-5" transform="translate(333.6 231) scale(2.3 1)"><tspan x="0" y="0">RENATO</tspan></text>
          </g>
          <g>
            <path class="cls-2" d="M331.8,246.3c-.8.2-2.6.5-4.8.5-5.7,0-9.1-1.9-9.1-4.7s3.9-4.9,9.6-4.9,3.9.3,4.5.5l-.7,1.4c-.9-.2-2.2-.4-3.7-.4-3.8,0-6.4,1.3-6.4,3.4s2.2,3.3,6.4,3.3,2.9-.2,3.8-.4l.6,1.4h-.2Z"/>
            <path class="cls-2" d="M338.3,243.9l-1.6,2.7h-3.3l5.8-9.2h4l5.9,9.2h-3.4l-1.7-2.7h-5.8.1ZM343.5,242.6l-1.5-2.3c-.4-.6-.6-1.1-.9-1.6h0c-.3.5-.5,1.1-.8,1.6l-1.4,2.3h4.7-.1Z"/>
            <path class="cls-2" d="M351.6,237.5c1.2-.1,3-.2,5-.2s4.2.2,5.4.8c.9.4,1.5,1,1.5,1.8,0,1.2-1.6,2-3.1,2.3h0c1.2.3,1.9.9,2.3,1.8.6,1.2,1,2.2,1.4,2.6h-3.2c-.3-.3-.7-1-1.2-2.1-.5-1.2-1.3-1.6-3.2-1.6h-1.8v3.8h-3.1v-9.1h0ZM354.7,241.6h2.1c2.2,0,3.5-.6,3.5-1.5s-1.4-1.5-3.5-1.5h-2.2v3Z"/>
            <path class="cls-2" d="M370.6,246.6l-5.8-9.2h3.4l2.5,4.2c.7,1.2,1.3,2.2,1.8,3.3h0c.5-1.1,1.2-2.2,1.9-3.3l2.7-4.2h3.3l-6.3,9.2h-3.6.1Z"/>
            <path class="cls-2" d="M384.3,243.9l-1.6,2.7h-3.3l5.8-9.2h4l5.9,9.2h-3.4l-1.7-2.7h-5.8.1ZM389.6,242.6l-1.5-2.3c-.4-.6-.6-1.1-.9-1.6h0c-.3.5-.5,1.1-.8,1.6l-1.4,2.3h4.7-.1Z"/>
            <path class="cls-2" d="M401.7,237.4h3.1v5.8c0,2.6-2.3,3.5-5.8,3.5s-2.1,0-2.9-.3l.4-1.4c.5.1,1.3.2,2.1.2,1.9,0,3-.5,3-2.2v-5.7h0Z"/>
            <path class="cls-2" d="M411.9,243.9l-1.6,2.7h-3.3l5.8-9.2h4l5.9,9.2h-3.4l-1.7-2.7h-5.8.1ZM417.1,242.6l-1.5-2.3c-.4-.6-.6-1.1-.9-1.6h0c-.3.5-.5,1.1-.8,1.6l-1.4,2.3h4.7-.1Z"/>
            <path class="cls-2" d="M425.2,237.4h3.1v7.7h7.5v1.5h-10.6v-9.2Z"/>
          </g>
        </g>
        <g id="Capa_2">
          <path class="cls-6" d="M401.5,117.4c-.9-.6-5.7-3.7-10.8-6.7-5-3-9.7-6.2-10.5-7.1-2.2-2.6-3.6-1.5-4.4,3.2-.4,2.6-2,6.3-3.9,8.8-1.8,2.5-4.4,6.5-5.8,9-2.3,4.1-2.6,4.6-5.2,4.8-1.5.2-2.8.9-2.7,1.5,0,.5,6.2,4.2,13.5,8.2,7.2,4,13.6,7.6,14,8.1s1.2-.5,2-2.4c1-2.5,1.7-3.3,3.2-3.2,2.8,0,1.2-1.1-3.2-2.1-5.2-1.1-12.1-4.4-14-6.5-1.2-1.4-.3-5.6,1.6-7.2s5.5,1.7,7.6,4.2c1.7,2,2,2.1,2.7.2.5-1.1,1.6-2.6,2.4-3.4,1.9-1.6,2-1.5-1.8-3.2-6-2.8-7.6-4.4-6.4-7.2,1.6-3.3,3.8-3.2,9.5.2,3.2,1.9,5.3,3.9,7.5,7.3l3,4.6,2-4.2c2.1-4.6,2.1-5.1-.4-7h0Z"/>
        </g>
      </g>
    </g>
  </g>
</svg>