<?xml version="1.0" encoding="UTF-8"?>
<svg xmlns="http://www.w3.org/2000/svg" version="1.1" viewBox="0 0 300 300">
  <!-- Generator: Adobe Illustrator 28.7.1, SVG Export Plug-In . SVG Version: 1.2.0 Build 142)  -->
  <g>
    <g id="Capa_1">
      <path d="M134.5,37.5c-23.3,3.7-42.5,13.1-58.2,28.4-21.8,21.2-32.3,46.5-32.3,77.8s1,21.3,4.2,31.3c5.1,16,17.8,35.4,29.7,45.9,13.3,11.5,33.1,21.5,51.1,25.6,11.8,2.8,30.6,2.4,44.9-.8,20-4.6,41.2-16.4,53.2-29.5,11.5-12.6,22.1-30.7,25.8-44.2,6.8-24.6,3.8-53.5-7.9-77-20.9-41.5-65.5-64.7-110.5-57.5ZM166.5,41.5c21.2,3.4,40.3,13.2,55.4,28.3,31.2,31.3,39.8,78.6,21.2,116.7-11,22.3-26.2,37.4-48.6,48.1-15.7,7.4-26.2,9.8-44.5,9.8-12.2.1-15.9-.3-23.5-2.3-20.6-5.4-35.8-14.2-50.5-29.1-22.8-23-32.5-52.9-27.5-84.5,3.9-24.9,12.7-42.7,29.2-58.6,24.3-23.5,56.3-33.7,88.8-28.4Z"/>
      <path d="M157.8,45c0,.5.6,1.2,1.4,1.6,1.4.6,1.6,6.8.4,6.7s-2.3-1.7-4.3-3.8c-3.5-3.6-7.9-6-9.2-4.9s-.1,1.5.4,2.8c1.4,3.7,1.5,11,0,12.3-1.8,1.8-1.2,2.2,2.6,1.9q3.1-.2,2-3.2c-.7-1.7-1-4-.7-5.1.5-2,.9-1.7,5.2,2.9,2.7,2.7,5.3,5.1,5.9,5.1s1.3-2.4,1.7-6.8.9-7.5,1.3-8.4c.6-1.3,0-1.6-2.9-1.8s-3.6.1-3.7.6Z"/>
      <path d="M171.2,48.6c-1.2,2.6-.4,3.8,1.4,2.3.7-.6,1.7-.8,2.3-.5,1.1.7-2.5,10.7-4.2,11.8-1.5.9-1,1.2,3.5,2.5q3.7,1.1,3.2-1.6c-.6-2.9,1.7-10.3,3.3-10.8.6-.2,1.3.6,1.7,1.9.6,2.2.7,2.3,2.1.4,2.5-3.3,1.8-4.1-5.4-6.2l-6.9-2.1-1,2.3Z"/>
      <path d="M129.4,45c-5.3,1-5.9,1.3-4.9,2.9,1.4,2.4,2.5,12.5,1.5,14.4-.5.7-.4,1.2.1,1.1s4.1-.8,8-1.6c6-1.1,7.1-1.6,7.3-3.5l.2-2.2-3.5,1.4c-4.4,1.8-8,1.2-7.1-1.1.4-.9,1.6-1.6,2.8-1.5,1.5,0,2-.5,2-1.9-.1-1.6-.6-1.8-2.9-1.4-1.8.4-3,0-3.5-.7-1.4-2,2.8-3.6,7.3-2.8s3.8.4,3.5-1c-.1-.9-.3-1.9-.3-2.1.2-.9-4.8-.9-10.5,0Z"/>
      <path d="M190.2,58.4c-.6,2.4-2.3,5.7-3.7,7.4l-2.5,3,4.2,2.5c4,2.4,6.5,2,3.9-.6s-1.1-5.3,2.2-4.8c1.1.2.9-1.3-.4-2.6s-.5-4.3,1.1-4.3,1.5,1.2,2.1,2.7c1,2.8,2.2,2.3,3.3-1.4.6-1.8,0-2.5-3.3-4.3-2.2-1.1-4.4-2-4.9-2s-1.3,2-2,4.4Z"/>
      <path d="M108.7,52.2c-2.6,2.4-2.7,2.9-2,8.1l.7,5.6-3.9-2.6c-4.6-3.1-6.5-3.3-8.9-.6-1,1.1-1.3,2-.7,2,1.3,0,7.8,8.8,8.3,11.3.4,1.6.6,1.6,2.6.2l2.2-1.5-2.9-3.2c-1.6-1.8-2.8-3.4-2.6-3.6s2.3.6,4.6,1.7c2.4,1.1,4.6,1.8,5,1.6s.5-2.8.3-5.7l-.4-5.3,2,2.4c1.2,1.3,2.1,3,2.1,3.8,0,1.2.5,1.1,3-.4,3.2-1.8,3.9-3.3,1.7-3.3s-7.8-9.5-7.1-11.4c.9-2.4-.9-1.9-4,.9Z"/>
      <path d="M204.4,64.3c.4,1.7-.1,3-1.8,4.6-1.4,1.3-3,3.6-3.7,5.3-1,2.5-1,3.2.6,4.6,1,.9,1.9,1.3,2.1.7.3-.6.9-1.7,1.4-2.5.9-1.3,1.1-1.3,2,0,.5.8.8,2.1.5,2.8-.8,2.2.6,6.2,2.1,6.2s1.4-1.2,1.4-3.4.4-3.5,2.5-4c1.4-.4,3.2-1.7,4.1-3,1.9-3.1,1-5.1-4.8-10-4.9-4.2-7.3-4.7-6.4-1.3ZM211.4,71.2c1.7,2.7-.6,4.5-3.9,3s-2.4-1.4-1.3-3.2c1.5-2.4,3.6-2.3,5.2.2Z"/>
      <path d="M139.5,66.1c-25.3,3.9-46.7,19.3-58.4,41.8-6.8,13.2-8.6,20.6-8.5,35.6.1,11.2.4,14.1,2.7,21,3.6,11,8.9,19.5,17.6,28.7,19.1,20.2,44,29,70,24.8,19.9-3.3,36.5-13.5,49-30,11.8-15.7,15.5-26.3,15.5-44.5.1-14.4-1.5-21.1-7.9-34-8-16.2-19.8-28.1-36-36-4.9-2.5-11.6-5.2-14.9-6-7.6-1.9-21.6-2.6-29.1-1.4ZM166.9,70.5c13.2,3.1,29,12.9,39,24.2,6.3,7.1,13.3,20.4,16.2,30.8,1.8,6.6,2.1,9.7,1.6,18.5-.5,12.1-2.3,21.3-3.9,20.4-.7-.4-.8-.2-.4.4.3.6,0,2.6-.8,4.4l-1.4,3.3v-2.9c-.4-9.4-7-19.5-7.3-10.8,0,2.4-.1,2.5-.8.7-.6-1.4-1.2.6-2.1,6.8-1.1,7.8-1,9.4.4,12.9,1.6,4.3,1.4,5.8-1,5.8s-1.2.5-.8,1.2c.4.6.3.8-.4.4-.6-.3-2,.6-3.1,2l-2.1,2.7v-5.1c0-6.4-1.3-9.9-4.3-11.3-2-.9-2.8-.6-5.5,1.9-3,2.8-3.2,3.4-3.4,10.9l-.2,7.8-.5-8-.6-8-.9,7.7c-1,9.7-3.2,10.7-3.8,1.8-.2-3.3-1-6.6-1.7-7.3-2-1.9-5.1,2.6-5.1,7.4s-.4,3.9-1.9,3.9-2.3-.6-2.8-1.3c-.9-1.5-.5-20,.5-20.7.4-.3,1.3-1.7,1.9-3.2,1.4-3.1,1.5-3-7.6-7.9-3.7-2-4.6-3.1-5.8-7.1-.7-2.6-1.8-5-2.3-5.3-.6-.4-1-9.3-1-22.6v-22l8.3.6,8.2.5,2.7-3.3,2.7-3.4-3-2.9c-2.8-2.7-3.3-2.8-11-2.5l-8,.3.2-7.7c.2-7,0-7.8-2.4-10.2l-2.5-2.6-3.1,2.4c-2.9,2.3-3,2.7-3,10.3v7.8c-.1,0-8-.3-8-.3-7.3-.4-8.1-.2-10.5,2-3.2,3.1-3.2,3.9.3,7.7,2.8,3,2.8,3.1,10.1,2.3,4-.5,7.7-.6,8.1-.3.4.2.8,9.6.8,20.8.1,18.3-.1,20.7-1.9,24.4-1.1,2.3-2,5.2-2,6.5s-1.1,2.8-4.7,4.6c-8.9,4.2-9.3,4.6-8,8.1.6,1.6,1.5,3,1.8,3,1.5,0,2.1,6.5,1.4,14.6-.6,7.3-.9,8.4-2.5,8.4s-2-1-2.5-4.8c-.3-2.6-.7-5.4-.8-6.2s-1.1-1.5-2.2-1.5c-1.6,0-2.1.8-2.3,4.4-.4,5.6-2.3,7.8-4.6,5.2-.9-1-1.6-3.2-1.6-4.9s-.4-3.2-1-3.2-1-1.7-1-3.8c0-5.6-2.1-23.4-3.1-26-.6-1.4-1.7-2.2-3.3-2.2-2.8,0-3.2,1.2-4.7,18.4-.6,6.7-1.5,12.5-2,13.1-.5.5-.9,2.3-.9,4.1,0,3.8-2.6,5.3-4.6,2.7-1.6-2.1-1.8-4.7-.4-3.8.6.3,1,.1,1-.4s-.7-1.1-1.6-1.1c-1.3,0-1.5-.6-.9-2.8,1.7-6.7,1.7-11.2,0-13.9l-1.8-2.7-1.9,2.4c-2,2.5-2.1,8-.3,14,1.2,3.8-4.3-4.4-7-10.5-7.9-17.8-7.7-39.1.5-57.1,9.1-20.1,28.5-36.8,49-42.3,9.4-2.5,26.6-2.8,35.9-.6ZM149.6,77.8c-.8.9-1.9,1.3-2.2.9-1-.9,1.6-3.8,2.8-3.1.6.4.4,1.3-.6,2.2ZM149.2,89.3l.3,7.7h-9.7c-7.2,0-9.8-.3-9.8-1.3s-.3-.7-1,.3c-.5.9-.5,1.9.2,2.7s.7,1.3,0,1.3-1.5-.6-2.1-1.4c-2.2-2.7,1.3-3.9,10.9-3.7l9,.2v-7.7c0-10.1,1.7-8.6,2.2,1.9ZM169.5,96c.4.6-2.7,1-8.7,1s-8.8-.3-7.8-1c2-1.3,15.7-1.3,16.5,0ZM148.2,137.5c-.8,5.8-1,3.3-1.1-14.1,0-11.6.2-21.4.7-21.8,1.1-1.1,1.4,27.8.4,35.9ZM151.3,148.7c-1.3.2-3.3.2-4.5,0-1.3-.2-.3-.4,2.2-.4s3.5.2,2.3.4ZM151.3,152.1h3.2c0,.1-3.5.9-3.5.9-1.9.4-4.3,1.1-5.2,1.5-1.3.5-1.8.3-1.8-.7,0-2,1.1-3,2.8-2.3.7.3,2.8.6,4.5.6ZM105.8,164.7c-.4,7.1-.9,13.8-1.1,15-.3,1.4.3,2.5,1.7,3.1,1.8.9,1.6,1.1-1.8,1.1-3,.1-3.6-.2-2.8-1.2.6-.7,1.6-7.9,2.3-16s1.5-14.7,1.8-14.7.3,5.7-.1,12.7ZM158.7,160.6c4.7,2.5,8.2,4.8,8,5.1-.3.2-4.1-1.4-8.6-3.6l-8.1-4.1-8.7,4.4-8.8,4.5,15,.2c8.3.1,16.2.1,17.8,0,1.5-.1,2.7.3,2.7.8s-6.1,1.1-18.5,1.1-18.5-.2-18.5-1.4,16.9-11.5,18.9-11.6c.2,0,4.2,2.1,8.8,4.6ZM151.4,163.9c.6.9-2.6,2.1-5.4,2.1-.9-.1-.5-.7,1-1.5,3-1.7,3.7-1.8,4.4-.6ZM208.7,170.7c-.3,1-.5.4-.5-1.2s.2-2.4.5-1.8c.2.7.2,2.1,0,3ZM156.4,175.9c1.7,1.9,2.1,4.1,2.5,12.3.1,3.4.4,3.7,3.4,4.1q3.1.4-.5.5c-4.9.2-5.4,3.1-.5,3.3,1.7.1-1.1.6-6.3,1-13.7,1.3-14,1.1-14-9.8s.3-9,2.2-11c2.8-3,10.6-3.3,13.2-.4ZM136,182.9c0,3.9-.4,7.3-1,7.6-.6.4-1-2.2-1-6.9s.4-7.6,1-7.6,1,3,1,6.9ZM163,183.6c0,4.1-.4,6.3-1,5.9-1.8-1.1-1.2-12.5.7-12.5s.3,3,.3,6.6ZM103.7,187.8c-1.7,1.9-2.3,3.7-.9,2.9.4-.3,2.5-.1,4.7.3q3.9.8-1.7.9c-4.4.1-5.7.5-6,1.8-.3,1.5-.4,1.5-1.7-.1-1.3-1.5-1.2-1.8.7-2.3,1.5-.3,2.2-1.3,2.2-2.9s.6-2.4,2.2-2.4,2,.1.5,1.8ZM136.8,192.7c-1,.2-2.6.2-3.5,0-1-.3-.2-.5,1.7-.5s2.7.2,1.8.5ZM139.9,196.4c-1.2,1-9.9,1.6-9.9.7s2.2-1.1,5.2-1.1,4.9.2,4.7.4ZM117.5,198c.4.6-2.2.9-7.2.8h-7.8c0-.1,6.5-.8,6.5-.8,3.6-.4,6.8-.7,7.2-.8s1,.2,1.3.8ZM187.5,198.5c-2.5.9-14.5,1.2-14.5.4s3.5-.9,7.8-.8c4.2,0,7.3.2,6.7.4ZM164,200c-1.8,1.2-34,1-34-.2s8-.8,17.8-.8,17.2.3,16.2,1ZM163,203c1.5.5-5.3.8-16.3.9-12.3.1-18.6-.2-18.2-.9.7-1.2,30.8-1.2,34.5,0ZM158.2,206.7c-6.2.2-16.1.2-22,0-5.9-.1-.8-.3,11.3-.3s16.9.2,10.7.3ZM153.3,209.7c-4.6.2-12,.2-16.5,0-4.6-.1-.9-.3,8.2-.3s12.8.2,8.3.3Z"/>
      <path d="M88.2,113.5c-.2,2.7.4,3,2.8,1.5.9-.6,1.7-.5,2.2.3.5.7.8,0,.8-1.7s-.3-2.6-1.4-1.7c-1,.8-1.6.9-2.1.1-1.1-1.7-2.1-1.1-2.3,1.5Z"/>
      <path d="M97.2,113.4c-1,2.2-.8,2.4,1.4,2.2,1.6-.1,2.2-.6,1.9-1.4s-.5-1.8-.5-2.3c0-1.8-1.7-.9-2.8,1.5Z"/>
      <path d="M103,113.5c0,1.4.5,2.5,1,2.5s1-.5,1-1.1.5-.8,1.5.1c1.3,1.1,1.5.8,1.5-1.6s-.3-2.5-.9-1.5c-.6.9-1.1,1-1.5.2-1.2-1.9-2.6-1.2-2.6,1.4Z"/>
      <path d="M111.2,113.4c-1.1,2.4-1,2.6,1.3,2.6s3.1-.8,1.2-3.4c-1.2-1.7-1.4-1.6-2.5.8Z"/>
      <path d="M117.3,112.1c-.6.6-.9,1.8-.6,2.5.6,1.6,3.3,1.9,3.3.3s-.4-.7-1-.4c-.5.3-1-.1-1-.9,0-2.4,2.9-1.9,4,.6q.9,2.3.9.1c.1-1.2.7-2.4,1.4-2.6.6-.3-.4-.6-2.3-.6-2-.1-4.1.4-4.7,1Z"/>
      <path d="M126,113.5c0,1.9.5,2.5,2.3,2.5s1.9-.2.7-1c-1.3-.9-1.3-1,0-1s1.3-.2.1-.9c-1.1-.7-1.1-.9,0-1.4.8-.3.4-.6-.8-.6-1.8-.1-2.3.5-2.3,2.4Z"/>
      <path d="M132,114c0,3.3.7,3.7,3.5,1.6,2.3-1.6,1.4-4.6-1.5-4.6s-2,.7-2,3ZM135,114c0,.5-.4,1-1,1s-1-.5-1-1,.5-1,1-1,1,.4,1,1Z"/>
      <path d="M163,112.2c0,.9,1.1,1.8,2.5,2,2,.4,2.5.1,2.5-1.5s-.3-1.7-1.3-.8c-1,.8-1.7.7-2.5-.1s-1.2-.8-1.2.4Z"/>
      <path d="M171.1,112.8c-1,1.8-.8,2.1.9,1.9,2.2-.1,2.4-.5,1.1-2.6-.7-1.1-1.1-1-2,.7Z"/>
      <path d="M177,112.9c0,2.5.6,2.7,1.3.6.4-.8.2-1.7-.3-2-.6-.4-1,.3-1,1.4Z"/>
      <path d="M179.7,112.4c-.4,1-.5,2.1-.2,2.4.9.9,1.7-.6,1.3-2.5-.3-1.7-.4-1.7-1.1.1Z"/>
      <path d="M194.7,113c.3,1.1.7,2,.8,2s.5-.9.8-2c.3-1.2,0-2-.8-2s-1.1.8-.8,2Z"/>
      <path d="M201,112.1q2.4,1.1.5,2l-2,.9,2-.3c2.9-.3,2.5-3.2-.5-3.4l-2.5-.3,2.5,1.1Z"/>
      <path d="M185,113.2c0,1.1.8,1.8,2,1.8s2-.5,2-1.1-.5-.7-1.1-.3c-.6.3-1.5,0-2-.7-.7-1.1-.9-1-.9.3Z"/>
      <path d="M161,119.5c0,2.2.4,2.6,2.3,2.3,1.4-.2,2.2-1,2.2-2.3s-.8-2.1-2.2-2.3c-1.9-.3-2.3.1-2.3,2.3Z"/>
      <path d="M181.3,117.7c-.7.2-1.3,1-1.3,1.8,0,1.6,2.5,3.7,3.3,2.8.4-.3-.1-1.2-1.1-1.9q-1.6-1.3.1-1.4c.9,0,1.7-.5,1.7-1,0-1.1-.7-1.2-2.7-.3Z"/>
      <path d="M186,120c0,2.6.3,3.1,1,2,.9-1.3,1.1-1.3,1.9,0,.9,1.2,1.1,1.2,1.7-.3.3-.9.3-2.5,0-3.4-.6-1.5-.8-1.5-1.7-.3-.8,1.3-1,1.3-1.9,0-.7-1.1-1-.6-1,2Z"/>
      <path d="M192,118.1c0,.6.5,1.9,1,2.9,1.4,2.7,4,1.4,3.9-1.9-.2-2.3-.2-2.4-.6-.4-.5,2.8-2.3,3-2.3.3s-.4-2-1-2-1,.5-1,1.1Z"/>
      <path d="M199,120.2c0,2.3.3,2.9.9,1.9.5-.7,1.3-1.1,1.9-.8.5.4.9-.3.8-1.6-.1-1.2-.9-2.3-1.8-2.5-1.4-.3-1.8.3-1.8,3Z"/>
      <path d="M205.7,117.7c-.4.3-.7,1.5-.7,2.5s.7,1.8,2.3,1.7,1.8-.2.5-.6c-2.1-.5-2.3-1.4-.6-3.1s.8-1.2.2-1.2-1.4.3-1.7.7Z"/>
      <path d="M210,119.6c0,2,.4,2.5,1.7,2,.9-.4,2-.1,2.5.6.5.8.8,0,.8-2.1,0-3.3-.1-3.4-1.5-1.5-1.3,1.7-1.4,1.7-1.5.1,0-2.8-2-1.9-2,.9Z"/>
      <path d="M173.2,119.2c-1.7,1.7-1.6,4.4.1,2.9,1-.8,1.7-.7,2.5.1,1.6,1.6,1.5-.4-.1-2.5-1-1.4-1.5-1.5-2.5-.5Z"/>
      <path d="M106,137.9c0,1.3-.8,2.1-2.2,2.3-1.3.2-2.1.7-1.9,1.3.2.5,1.2.9,2.3.7,1.3-.2,1.8.3,1.8,2.2s.6,2.6,1.5,2.6,1.5-.9,1.5-2.4.5-2.3,1.6-2.2c.9,0,1.9-.5,2.1-1.2.3-.7-.4-1.2-1.6-1.2s-2.1-.6-2.1-2-.7-2-1.5-2-1.5.9-1.5,1.9Z"/>
      <path d="M206,139c0,.5.5,1,1.1,1s.7-.5.4-1c-.3-.6-.8-1-1.1-1s-.4.4-.4,1Z"/>
      <path d="M83.5,147.2c1.1.6,2.8,2,3.8,3.2l1.8,2.1-1.1-2.2c-1-2.2-3.9-4.3-5.7-4.3s.1.6,1.2,1.2Z"/>
      <path d="M187,176c-1.4,1-2.3,2.1-2,2.3.3.3,1.9-.6,3.5-1.9,3.5-2.8,2.2-3.2-1.5-.4Z"/>
      <path d="M95.7,188.5c.3.8.9,1.2,1.4.9,1.2-.7,1.1-1.1-.5-1.7-1-.4-1.3-.1-.9.8Z"/>
      <path d="M145.6,177.1c-2.4,1.9-2.6,2.6-2.6,10.5v8.4h13v-8.9c0-8.2-.2-9.1-2.2-10.5-3-2.1-5-2-8.2.5Z"/>
      <path d="M80.9,73.3c-5.7,4.8-7,6.5-6,7.3.7.6,1.6,1.1,1.9,1.1s2.5,2.5,4.9,5.5l4.3,5.4,6.4-6.2c5.2-5.1,6.2-6.7,5.7-8.2-.7-1.7-1.3-1.3-5.1,3.2-2.4,2.7-4.9,4.9-5.6,4.8-2.6-.3-2.1-3.4.9-6.4,1.7-1.7,2.9-3.7,2.7-4.2-.8-1.7-1.7-1.4-3.9,1.5-2.3,3-5.3,3.4-4.9.6s5.8-6.5,7.7-6.3,1.2-.2,1.3-.6c.1-.9-1.7-3.4-2.6-3.6s-3.9,2.7-7.8,6.2Z"/>
      <path d="M220.4,77.7c-.4,1.2-1.5,2.5-2.5,2.8-1,.4-2.9,2.1-4.1,3.8-1.2,1.8-2.7,3.5-3.3,3.9-.6.5-.2,1.6,1.3,3,1.7,1.8,2.2,1.9,2.2.7s2.5-4,5.6-6.9l5.6-5.3-2.1-2.1-2.2-2.1-.5,2.2Z"/>
      <path d="M222.3,89c-4.9,2-5.6,8-1.7,14.5,2.8,4.9,4.9,6,9.7,4.9,7.6-1.6,9.5-6,5.7-13.4-3-5.8-8.3-8.2-13.7-6ZM231.9,94.6c2.5,3.2,2.6,5.1.4,7.6-3.4,3.8-10.3,1.1-10.3-4s6.3-8.2,9.9-3.6Z"/>
      <path d="M66.7,90.2c-3.1,2.5-5.1,7.3-5.4,12.3-.1,5.1,1.8,7.8,6.2,8.7,2.9.6,4.4.2,7.3-2.1,4-3,6.5-7.7,6.1-11.4-.3-3.2-1.8-2.1-2,1.4-.2,2.4-.9,3.6-3.8,5.4s-5.7,2.5-8.4.3c-3.7-3-.9-11.6,4.1-12.4,1.7-.3,2.5-.9,2.4-2.1-.4-2.4-3.6-2.6-6.4-.2Z"/>
      <path d="M59,126.5c-1.2,1.4-1.1,1.8,0,2.5,1.8,1.1,4.2.1,3.8-1.8-.4-2.2-2.3-2.5-3.8-.7Z"/>
      <path d="M237.4,126.5c-.8,1.9,1.2,3.6,3.3,2.8,1.9-.7,1.2-3.7-1-4.1-.9-.2-2,.4-2.3,1.3Z"/>
      <path d="M56.5,135c-.4.6-.3,1.6.3,2.3.5.7,1.2,2,1.5,2.9.5,1.5.4,1.6-1.3.5-2.5-1.5-5.5.1-5.5,2.9s.7,1.9,3.3,1.8c3.1-.2,3.2-.1,3.1,3.5-.1,6,4.1,24.3,6.2,26.5,1.9,2,1.7-.3-.7-8.4-1.3-4.7-2.3-10.6-2.3-13.5.1-2.7,0-5.7-.2-6.5-.3-1.1.5-1.5,3.1-1.5s3.6-.4,3.8-2.1c.4-3-2.4-5.1-4.9-3.6-1.6,1-1.9.9-1.9-.7s.5-2.1,1.2-2.3c.6-.2.8-1,.4-1.6-.9-1.5-5.2-1.6-6.1-.2ZM57,143c0,.5-.7,1-1.5,1s-1.5-.5-1.5-1,.7-1,1.5-1,1.5.4,1.5,1ZM65,143c0,.5-.7,1-1.6,1s-1.2-.5-.9-1c.3-.6,1-1,1.6-1s.9.4.9,1Z"/>
      <path d="M237.1,135.4c-.9,1-.8,1.5.4,2,.8.3,1.5,1.5,1.5,2.6,0,1.7-.3,1.8-1.9.9-2.4-1.6-5.1-.5-5.1,1.9s2.5,4.8,3.5,3.2c1.2-2,3.5-1,3.5,1.5s-.5,2.5-1.2,2.5-.9.3,0,1.2,1.2,2.6,1.2,4.3c0,2.7-3,13.1-5.5,18.9-.6,1.4-.5,1.8.6,1.4,2.1-.6,7.1-16.4,7.5-23.8q.3-6.5,3.3-6.3c1.7.2,3.4-.4,4.2-1.3,1.1-1.4,1-1.9-1-3.5-1.8-1.5-2.7-1.6-4.3-.8-2.8,1.5-3.5.3-1.3-2.2,1.7-1.7,1.7-2.2.5-2.9-2.2-1.4-4.6-1.2-5.9.4ZM237.5,143c.3.5-.1,1-.9,1s-1.6-.5-1.6-1,.4-1,.9-1,1.3.4,1.6,1ZM246,143c0,.5-.7,1-1.5,1s-1.5-.5-1.5-1,.7-1,1.5-1,1.5.4,1.5,1Z"/>
      <path d="M231.1,168.4c-1.2,1.4-.5,2.6,1.6,2.6s1.8-2.6.4-3.4c-.5-.3-1.4,0-2,.8Z"/>
      <path d="M66,169.5c0,.8.7,1.5,1.5,1.5s1.5-.7,1.5-1.5-.7-1.5-1.5-1.5-1.5.7-1.5,1.5Z"/>
      <path d="M57.3,170.2c.2.7,1,1.3,1.7,1.3s1.5-.6,1.8-1.3c.2-.7-.5-1.2-1.8-1.2s-2,.5-1.7,1.2Z"/>
      <path d="M239,170.5c0,.8.7,1.5,1.5,1.5s1.5-.7,1.5-1.5-.7-1.5-1.5-1.5-1.5.7-1.5,1.5Z"/>
      <path d="M65,179.5c0,.9.5,1.5,1.1,1.3s1.1-.8,1.1-1.3-.5-1.1-1.1-1.3-1.1.4-1.1,1.3Z"/>
      <path d="M231.6,178.7c-1.1,1.1-.6,2.3.9,2.3s1.5-.4,1.5-.9c0-1.3-1.6-2.2-2.4-1.4Z"/>
      <path d="M77,183.2c0,.7-2.5,3.1-5.5,5.3s-5.4,4.5-5.5,5.2c0,.6,1.6,2.8,3.5,4.9,3.1,3.3,3.9,3.6,7.2,3.1,4.2-.7,8.3-4.6,8.3-7.9s-1.4-4.3-3.1-7c-3-4.7-4.9-6-4.9-3.6ZM80.5,190.1c1.7,5.1-3.2,10.2-7.6,7.9-2.8-1.5-2.4-3.4,1.6-6.9,4.2-3.6,5.1-3.8,6-1Z"/>
      <path d="M218.1,186.6c-7.2,6-1.5,18.2,7.4,16,4.1-1,6.5-4.5,6.5-9.2s-.5-4.7-3.1-6.8c-1.7-1.4-4.1-2.6-5.4-2.6s-3.7,1.2-5.4,2.6ZM226.7,190.2c3.7,3.5,2.6,8.8-1.9,8.8s-6.8-4.3-6.8-6.4,2.7-4.6,4.8-4.6,2.6,1,3.9,2.2Z"/>
      <path d="M87.5,198.3c-1.1,1.2-4,3.9-6.4,6l-4.5,3.7,4.3,4.4c3.8,3.8,4.6,4.3,6.2,3.3,2.4-1.5,2.4-2.7.1-2.7s-2.7-.9-3.7-2c-1.5-1.7-1.6-2.2-.4-3.6,1.2-1.5,1.5-1.4,3.2.7s1.9,2.1,3.5.6c1.5-1.6,1.5-1.8-.3-3.1-1.6-1.1-1.7-1.7-.8-2.7,1.5-1.6,4.2-.5,5.1,2.2.7,1.9.9,1.9,2.2.4,1.2-1.4.9-2.1-2.6-5.5l-4-3.8-1.9,2.1Z"/>
      <path d="M206.4,201.3c-2.6,1.5-8.4,6.4-8.4,7.1s.6.3,1.4,0c1.9-.7,9.9,8.5,9.3,10.8-1.2,4.3,9.4-4.3,10.7-8.8,1-3.2-.9-7.1-4.3-8.9-3.6-1.8-5.9-1.9-8.7-.2ZM213.9,206.4c2.4,2.5,2.3,5.4-.3,7.5-1.8,1.5-9-7.1-7.3-8.8s5.2-1.3,7.6,1.3Z"/>
      <path d="M98,210.2c-1.4,2.2-3.7,5.3-5.1,6.8l-2.5,2.8,4.9,3.7c4.7,3.5,4.9,3.6,6.8,1.9,2.5-2.3,2.4-3.2-.4-2.7-1.4.3-2.9-.3-3.9-1.4-1.6-1.8-1.5-2.1,2.2-7,3.5-4.7,3.7-5.2,2.2-6.6s-1.9-1.1-4.2,2.5Z"/>
      <path d="M191.6,211.9c-.3.5,0,4.7.6,9.5,1,7.2,1.5,8.6,3,8.6s2.4-2,.7-3.7-.2-1.5,1.5-2.7c2.4-1.5,2.6-1.5,3.8.3.9,1.6,1.6,1.7,3.5.8,1.3-.5,2.3-1.5,2.3-2.1-.1-1.5-14.8-11.7-15.4-10.7ZM196.8,219.8c.2.7-.3,1.2-1.2,1.2s-1.6-.7-1.6-1.6c0-1.7,2.2-1.4,2.8.4Z"/>
      <path d="M175.7,218.8c-3.2,1.2-4.4,2.1-3.8,2.7,2,2,5,12.2,3.9,13.3-1.9,1.9.9,2.2,5.6.6,9.7-3.3,11.7-12.7,3.6-16.9-3.5-1.8-3.2-1.8-9.3.3ZM183.3,221.2c2.5,1.9,3.2,7.1,1.2,9.1-2.6,2.7-4.1,2-5.4-2.4-.7-2.3-1.5-4.7-1.7-5.4-.5-1.1.5-1.7,3.7-2.4.3,0,1.3.5,2.2,1.1Z"/>
      <path d="M120.5,218.7c-2.7.7-5.5,3.3-6.6,6.1-2.3,6,6,13.9,11.8,11.3,3.7-1.7,3-4.1-1-3.4-4.3.7-6.9-1.7-6.5-6,.2-2.2,1.1-3.6,3.1-4.7,2.7-1.4,2.9-1.4,5.1,1.1s2.3,2.5,3.4.8c.7-1,1.2-2.1,1.2-2.3,0-.4-7.8-3.7-8.3-3.5-.1.1-1.1.4-2.2.6Z"/>
      <path d="M164.7,221.7c-2.4.4-2.6.6-1.4,1.6,1.6,1.2,3.4,7.7,2.2,7.7s-2.7-1.8-5.2-4c-2.7-2.4-5.6-4-7.1-4s-2.2.3-1.4,1.3c1.8,2.2,2.7,12.4,1.2,14.2-1.1,1.3-.7,1.5,2.4,1.5s4.9-1.3,2.8-2.2c-1-.3-2.4-7.8-1.5-7.8s3,2,5.9,4.5c7,6.1,7.8,5.9,6.8-1.3-.4-3.1-.8-7.2-.8-9s-.2-3.1-.5-3.1c-.3.1-1.9.4-3.4.6Z"/>
      <path d="M135.9,223.5c-3.8,2.1-5.5,6.7-3.9,10.5,2.7,6.6,10.1,8.1,15.1,3.1,3.9-4,3.8-7.4-.5-11.7s-6.5-4.2-10.7-1.9ZM143.1,226c2.2,1.2,2.7,7.8.7,9.8-3.1,3.1-7.8,0-7.8-5.2s2.8-6.8,7.1-4.6Z"/>
    </g>
  </g>
</svg>