<?xml version="1.0" encoding="UTF-8"?>
<svg xmlns="http://www.w3.org/2000/svg" version="1.1" viewBox="0 0 1024 1024">
  <defs>
    <style>
      .cls-1 {
        fill: #1d1d1b;
        stroke: #fff;
        stroke-miterlimit: 10;
      }

      .cls-2 {
        display: none;
      }

      .cls-3 {
        fill: #fff;
        font-family: PalatinoLinotype-Bold, 'Palatino Linotype';
        font-size: 114px;
        font-weight: 700;
      }
    </style>
  </defs>
  <!-- Generator: Adobe Illustrator 28.7.1, SVG Export Plug-In . SVG Version: 1.2.0 Build 142)  -->
  <g>
    <g id="Capa_1">
      <g>
        <g id="Capa_3">
          <rect class="cls-1" x="132.3" y="582.9" width="777" height="105.6"/>
        </g>
        <g id="Capa_1-2" data-name="Capa_1">
          <g>
            <path d="M491.5,197.7c-26,2.8-51.2,8.8-76.1,18.3-39.9,15.3-74,37.1-107.6,69-23.2,22-46.9,54.3-62.3,84.8-16.3,32.4-28.1,73-31.6,108.7-1.1,11.7-.7,52.5.7,60.7l.6,3.8h-28.8c-15.9.2-32.3.5-36.4.9-7,.6-7.5.8-8.4,3.4-.8,2.3-.6,3.1,1.2,5l2.3,2.2,50.9.3c50.2.3,50.9.3,53-1.8s2.6-5.4,0-8-3.3-2-10.4-2h-8.4l-.6-3.3c-1.4-7.5-1.9-48.7-.7-59.8,3.4-32.1,12.5-65.7,25.6-94.4,3-6.5,15-27.9,20.6-36.8,18.6-29.3,50.8-63.1,79.1-83,17.2-12.2,26-17.4,42.7-25.7,26.8-13.3,54.3-21.9,83.6-26.2,19.7-2.9,52.8-3.1,68-.5,39,6.8,75.1,20,106.5,39.1,5,3.1,9.6,5.3,10.2,5,.6-.4.8-.3.5.3-.4.6,3.5,4,8.6,7.6,70.5,50,116.2,125.6,125.9,208.2,1.4,12.4,1.7,52.5.5,62.7l-.9,6.8h-7.9c-8.8,0-11.9,1.7-11.9,6.5s.9,5.2,50,5.4c45,.2,45.5.2,47.8-1.9,2.7-2.6,2.8-5.4.2-8s-3.3-2-32.6-2h-30.6l.7-4.8c2.5-18.5,2.5-40.7,0-65.2-4.4-42.6-19.5-86.6-42.6-124.6-9.3-15.4-21-31.5-22.4-31-.6.3-1.1-.1-1-.9.3-3-26.3-30.9-43.9-46.1-22.3-19.3-51-37.2-79.5-49.7-23.6-10.3-56.4-19.4-80.5-22.3-10.6-1.3-44.6-1.7-54-.7h0Z"/>
            <path d="M511.5,214.5c-2.2,2.1-2.5,3.3-2.5,9.5v7h-8.5c-7.2,0-8.8.3-10.5,2s-2,2.8-2,3.7c.1,4.5,3.9,6.3,13.4,6.3h7.6v16.8l-15.1,22.3c-18.9,28-19.6,28.9-21.8,28.9s-5.1,3.2-5.1,6.7,2.3,5.9,5.5,6.5c1.9.3,2,1.2,2.3,22.9l.2,22.5-7.2,5c-12.4,8.5-57.5,40.2-73.3,51.4-8.2,5.9-17,11.9-19.5,13.5-6.1,3.8-10,7.5-10,9.7,0,3.5,3.6,5.8,9,5.8h5v81h-4.8c-10.5,0-25.5,6.2-34.1,14.1l-4.1,3.8v-3.5c0-3,1-4.5,7.9-11.2,6-5.9,8.2-8.9,9.5-12.6,1.9-6,2-9.6.3-12-2-2.7-4.9-.7-8.7,5.9-1.7,3-3.6,5.5-4.2,5.5s-.5-.7.3-1.8c.7-.9.1-.6-1.3.8s-2.4,2.7-2.3,3c.2.3-.3,1.1-1.1,1.8-1.2,1.1-1.4.5-1.4-4s.8-7.5,9.5-16.9c6.6-7.1,9.5-13.2,9.5-20.1s-.5-4.8-1.1-5.9c-1-2-1.1-2-3-.3-1.1.9-3.5,4.1-5.5,7.1-1.9,2.9-3.9,5.1-4.3,4.8-.5-.2-1.7.5-2.7,1.8l-1.9,2.2,2.3-1.9c3.2-2.8,2.7-.5-.6,2.7l-2.8,2.7-.2-4.7c-.2-3.9.4-5.8,3.2-10.3,9.5-15.2,9-14,9.4-22.7.6-13.5-5-28.4-11-29.1-7.1-.8-14.5,21.7-12,36.5.7,4.1.6,5.3-.4,5.3s-1.6-.5-1.9-1c-1.2-1.9-6.4-1.1-7.5,1.1-1.9,3.4-.5,6,6.8,13.2,3.9,3.7,7.7,8.2,8.5,9.9,1.6,3.4,1.5,8.2-.4,10.4-1.4,1.7-3.2,1.8-2.6.1.2-.6,1-1.1,1.6-1,.6.2,1.1-.2,1.1-.7,0-.9-2.1-1.4-4.2-1.1-.4,0-.4-.7-.1-1.6.4-1.1.3-1.4-.5-.9s-2.1-1.3-3.9-5.3c-2.2-4.9-3.2-6.1-5-6.1-2.9,0-3.8,3.2-3,11.5.8,8.2,3.8,14.6,9.1,18.9,5.8,4.7,9.1,11.1,8.2,15.9-.4,2.3-1.3,3.7-2.2,3.7s-1.2-.5-.9-1c.3-.6.2-1-.3-1s-1.9-2-3.2-4.4c-1.2-2.5-3.5-5.7-5.1-7.2-2.5-2.4-3-2.5-4.5-1.3-1.3,1.1-1.6,2.6-1.1,8,.7,8,2.5,12.6,7.3,18.5,2,2.4,3.5,4.7,3.2,5-.3.2-7.2.3-15.3.2l-14.7-.3,2.2-2.8c3.1-3.9,5.2-11.4,3.9-13.8-1.6-3.1-3.7-2.2-10.3,4.1-3.5,3.3-6.6,6-7.1,6s-.5-2-.3-4.4c.5-3.9,1.3-5.2,6.8-10.3,7.4-6.8,11-13.5,11-20.6s-2.1-7.4-10.6,1.7c-5.4,5.9-7.3,7.4-7.7,6.2-.4-.9-.5-2.2-.3-2.9.3-.6.7-2.5,1.1-4,.3-1.6,3.2-5.7,6.5-9.2,7.8-8.4,11-14.8,11-22s-4-8.4-11,3.6c-4.5,7.7-6.5,9.7-7.3,7.5-.3-.8.1-1.7.9-2s1.4-1.2,1.4-2.1.3-1.4.8-1.2c.4.1.8-.2.9-.6.1-.5,1-1.5,2-2.3,1.5-1.1,1.6-1.3.2-1.4-.9,0-2.4.9-3.4,2-3.8,4.2-4.7,1.3-1.6-4.8,1-2,4.3-6.4,7.2-9.7,6.7-7.7,9.1-13.2,9.7-22.2.4-6.3.2-7.4-1.3-8-1.4-.5-2.6.3-4.7,2.7-1.5,1.9-2.8,3.9-2.8,4.5s-1.2,2.3-2.6,4c-2.3,2.8-2.4,2.8-1.8.6.4-1.7.3-2.2-.7-1.9-.8.3-1.2,1.3-1.1,2.3.3,1.7.2,1.7-1.4.4s-1.6-1.2-.5.9c.7,1.3,1.7,2,2.4,1.6.9-.5.9-.4,0,.6-1.5,1.6-4.3-.3-4.3-3s2.9-9,6.6-14.6c6.3-9.2,7.9-21.4,5-38-2.3-12.9-5.7-19.4-10.2-19.4s-10.2,10.6-12.8,25.8c-1.8,10.5-1.2,16.5,2.2,22,5.6,8.9,6.3,10.9,5.7,14.6-.5,2.4-1.1,3.3-2.1,2.9-.8-.3-1.4-1-1.4-1.5s-1-2.1-2.3-3.3c-1.2-1.3-3.8-4.6-5.7-7.4-5.6-8.2-9-5.8-7,4.8,1.3,7.2,4.4,12.7,11,19.6,6.7,7,8,9.2,8,13.4s-.4,3.1-2.7,3.2c-2.7,0-2.8,0-.5,1,1.3.5,2,1.4,1.6,2-.3.6,0,1.6.7,2.1,1.1.8,1,.9-.3.4-1-.3-1.8-.1-1.8.4s.7,1,1.6,1,1.2.5.9,1c-1.2,1.9-3.5-1-2.9-3.5.4-1.7,0-2.4-1.6-2.8-1.1-.3-1.9-.9-1.8-1.4.1-.4-.8-2.9-2-5.5-2.5-5.1-7.7-10.2-9.4-9.2-1.8,1.1-.3,17.2,2.2,23.6,1.1,3.2,4.1,8.4,6.5,11.7,2.4,3.2,5.1,7.4,6.1,9.2,2,3.9,3.7,17.9,2.3,19.3-.8.9-1.4-1.3-1-3.7,0-.4-.4-.7-1-.7s-.7-.5-.4-1c.3-.6.1-1-.5-1s-.8-.4-.5-1,.3-1-.2-1-2.8-3.2-5.3-7c-5-7.7-6.2-8.6-8.5-6.4-4.5,4.5,2,25.5,10.5,34.3,3.8,3.9,4,4.4,4,10.6v6.4l-25.6.3c-25.5.3-25.6.3-27.5,2.7-2.4,2.9-2.4,4.3,0,7.2l1.9,2.4,292.1.2,292.1.2,2-2.1c2.3-2.6,2.6-5.6.6-8.4-1.3-1.8-3-1.9-25.9-2.2l-24.5-.3-.4-6.5c-.3-6.2-.2-6.6,3-9.7,7-6.7,12.6-20.9,12-30.8-.3-4.6-.6-5.4-2.4-5.7-1.7-.2-2.7.9-5,5.2-1.5,3-3.1,5.4-3.4,5.4-2.5-.2-4.1.4-3.8,1.4.2.7-.9,2.6-2.5,4.3l-2.8,3,.7-4c1.1-6.8,3.9-12.9,8.9-19.9,5.8-8.2,9.6-18.7,9.8-27.8.3-11.3-2.9-11.5-8.7-.4-1.6,3-3.2,5.3-3.7,5.1-.4-.3-1.1.5-1.5,1.7-.5,1.5-1,1.6-1.5.3-.5-1.4-.8-1.5-.9-.5-.6,6.1-1.6,7.1-2.4,2.6-1.3-6.7,1.3-12.4,9.5-21.1,6.2-6.5,9.6-15.7,9-24.3-.4-6.2-6.6-1.9-11.1,7.8-1.5,3.2-2.7,4.7-3.6,4.3-.8-.3-1.4-1.1-1.4-1.8s-.4-1.7-1-2c-.6-.4-.7.1-.3,1.2.4,1.4.3,1.5-.6.7-1.5-1.3.8-7.6,3.9-10.9,5.1-5.4,6.2-14,3.4-27.2-3.6-17.8-11.3-27.5-16.8-21.4-4.6,5-8.2,23.6-7.2,36.5.7,8.6,3.1,15.1,7.5,20.6,4.2,5.2,4.8,6.9,5,13.5v6c0,0-1.7-3.3-1.7-3.3-1-1.8-2.1-3-2.5-2.6s-.7-.3-.7-1.5-.4-2.1-1.4-1.8c-1.6.6-4-1.6-2.9-2.7.4-.3-.2-1.3-1.3-2.1-1-.8-1.5-1.5-1-1.5,1.4,0-2.6-4-4-4-2.4,0-3.7,4.1-3,9.9.7,6.3,5.2,16.3,9.3,20.7,7.6,8.1,8.7,9.7,9.3,14.2.4,2.6.5,5.5,0,6.5-.6,1.6-.9,1.5-3.1-1-1.4-1.5-1.8-2.3-1-1.8.9.6.4-.1-1.1-1.5-1.4-1.4-4.1-4.6-5.9-7.3-4.8-6.9-8-6.1-8,1.8s3.7,13.8,10.5,21.3c7.8,8.7,8.9,10.6,8.1,14.4-.3,1.8-.2,2.7.4,2.3.6-.3,1,0,1,.4,0,2.9-4.9-.9-10.4-8-3.6-4.6-5.2-6-6.9-5.7-2.9.4-3.4,5.2-1.1,12.1,1.3,4.1,3.4,6.8,9.6,12.9,7.6,7.6,8.3,8.9,7,13.6-.7,2.2-.9,2.1-5.2-2.3-6.8-7-9.8-8.9-11.5-7.5-2.4,2-1.7,7.4,1.6,13.4l3,5.6h-30.1l4.4-5.5c5-6,7.6-13.2,7.6-20.6s-5.1-8.8-9.2,0c-2.1,4.7-3.6,5.7-7.1,5.1-.5,0-.6.3-.2.8.3.6,1.3.7,2.2.4,1.1-.4,1.4-.3.9.6-.5.7-1.4,1-2.1.7-.8-.3-1.5,0-1.8.7-.2.6-.4-.7-.5-3-.3-6,1-8.5,7.9-15.9,7.8-8.3,10.1-13.5,10-22.2,0-5.2-.4-7-1.8-8-1.5-1-2.1-.9-4,1.2-1.3,1.4-2.3,3-2.3,3.5s-1,1.9-2.2,3.1c-1.2,1.1-1.9,2.3-1.5,2.6,1,1.1-2.2,3.6-3.5,2.8-.9-.6-.9-.3,0,.9,1.5,1.9.9,2.2-1.8.7-1.5-.8-1.7-1.6-1.1-4.8.8-4.6,4.1-9.1,11.5-16,4.3-3.9,5.5-5.6,5.5-8,0-4.9-4-6.4-10-3.8-1.3.5-1.5-1.1-1.5-11.1s-1.6-20.2-5.8-26.4c-6.6-9.9-15.2.9-16.4,20.7-.7,10.7.4,14.7,5.7,21.9,4.9,6.6,5.7,8.2,6.3,13.5.3,2.5.3,3.9,0,3.2-.4-1-.8-1-1.9-.1s-1.5.8-2-.5c-.3-.9-1-1.3-1.5-1-1.3.8-1.1-3,.2-4.3s.5-1-.9-.9c-1.2.1-3.2-1.6-5.4-4.4-4.1-5.4-7.4-6.4-8.4-2.5-1.7,6.8,3.8,19.9,10.7,25.5,2.2,1.7,5.1,4.8,6.4,6.8,2.5,3.9,4.1,11.2,2.4,11.2s-.7.4-.4,1-.2,1-1.1,1-1.5-.2-1.2-.5-1.2-2.4-3.3-4.6c-2.1-2.3-4.8-5.6-6.1-7.5-6.9-10.2-10.6.2-4.4,12.4,1.5,3,5.3,7.6,9.6,11.4,5.4,4.9,7,6.9,7,9s-.3,2.8-.6,2.8-3.7-2.2-7.4-5c-9.7-7.2-16.9-10.2-27.2-11.4l-8.8-1v-80.6h4.3c7.8,0,11.3-5.3,6.5-9.7-1.3-1.1-8.4-6.2-15.8-11.3-7.4-5.2-18-12.5-23.5-16.4-5.5-3.8-17.9-12.4-27.5-19.1s-22.6-15.7-28.7-20.1l-11.3-7.9v-45.3l2.5-.6c3.5-.9,6.5-4.1,6.5-7.1s-3.3-6.5-6.4-6.5-4.2-2.6-12.9-15.8c-5.7-8.6-13.4-20-17-25.2l-6.7-9.5v-17.5h8.5c7.2,0,8.8-.3,10.5-2s2-2.9,2-4-.9-2.9-2-4c-1.7-1.7-3.3-2-10.5-2h-8.5v-7.8c0-6.4-.4-8.2-1.8-9.5-2.6-2.4-5.9-2.1-8.7.8h0ZM521.5,297.4c8.7,3.7,10.7,16.9,3.5,23-8.9,7.4-22.7,2.1-23.7-9.1-.9-10.9,9.7-18.3,20.2-13.9ZM519,340.9c.5,1.1,1,4.5,1,7.5v5.6h-9v-5.6c0-6.7,1.3-9.4,4.5-9.4s2.9.8,3.5,1.9ZM518.7,372.3c1,1.3,2.8,2.9,4.1,3.6,2.9,1.6,2.9,4.9,0,5.3-2.2.3-2.3.8-2.6,9l-.3,8.8h7.8c7.2,0,7.9-.2,9.9-2.7,1.9-2.4,2.4-2.6,3.8-1.4.9.7,1.6,2,1.6,2.7s1.1,1.9,2.4,2.6c4.3,1.9,4.4,6.3,0,7.4-1.5.4-2.5,1.5-2.9,3.5-.4,2.3-1.1,2.9-3,2.9s-2.5-.6-2.8-2.3c-.3-2-.9-2.2-8.5-2.5l-8.3-.3v15.5c0,15.3.3,17,3.5,17.1.6,0,1.1,1,1.3,2.2.2,1.4-.3,2.3-1.7,2.8-1.1.3-2.9,1.7-4,3.1-2.5,3.2-3.8,3-8.9-1.5-4.4-4-4.9-7.1-1.1-7.1s1.9-.8,1.7-15.8l-.3-15.7-7.6-.3c-7.5-.3-7.7-.2-8.3,2.3-.5,1.8-1.3,2.5-3.1,2.5s-2.7-.6-3.1-3c-.4-1.7-1.2-3-2-3-1.7,0-4.4-2.8-4.4-4.6s1.2-2,2.6-2.6c1.4-.7,3.2-2.5,4-4,1.8-3.5,4.1-3.6,5.6-.3,1.1,2.4,1.6,2.5,9,2.5h7.8v-16.6l-3.1-1.1c-3.6-1.4-3.4-3.2.3-5,1.4-.7,3.3-2.4,4.2-3.8,2.1-3.1,3.9-3.2,6.3-.2h0ZM464,484.5c-1.9,31.3-3.4,25.7-5-18.5-.5-14-.9-33.2-1-42.7v-17.1l3.3-2.8,3.2-2.7.3,32.4c.2,17.8-.2,40.9-.8,51.4h0ZM572,406.5c2.2,2.7-.4,90.9-2.9,97.9-.5,1.3-1-.9-1.5-6.5-.8-9.3-2.5-66.8-2.6-85.2v-11.8l2.8,2c1.6,1.1,3.5,2.7,4.2,3.6h0ZM282.9,412.7c.5,4,.3,6.3-.3,6.3s-.5.5.2,1.2,1.2,2.3,1.2,3.7v2.6c-.1,0-1.8-2.8-1.8-2.8-.9-1.5-2-2.7-2.5-2.7s0,1.2,1,2.7l1.7,2.8-2.2-1.9c-1.2-1.1-2.2-1.6-2.2-1.2s-.5.4-1,.1c-.7-.4-.7-1.3,0-2.6.7-1.2.7-1.9.1-1.9s-.7-1-.2-2.8c.5-1.5,1.4-5.4,2.1-8.7,1.1-5.5,1.4-5.8,2.2-3.5.6,1.4,1.3,5.3,1.7,8.7h0ZM751,408.2c2,3.3,2.5,11.3.8,12.4-.4.3-.8-.1-.8-.8,0-1-.2-1-.9.1-.5.8-.7,2-.4,2.7.2.6,0,1.5-.6,1.9-.6.3-1.1,0-1.2-.7,0-.7-.3-2.2-.5-3.3-.3-1.1-.5-3.8-.6-6,0-10.6.7-11.9,4.2-6.3h0ZM751.7,424c-.2,2.3-1,1.7-1.2-1,0-1,.2-1.7.6-1.4.4.2.7,1.3.6,2.4h0ZM279,425c0,.5-.5,1-1.1,1s-.7-.5-.4-1c.3-.6.8-1,1.1-1s.4.4.4,1ZM337.4,454.6c.3,1.3.7,2.8,1,3.2.8,1.3-1.3,8.2-2.4,8.2s-1-.5-1-1.1-.4-.7-1-.4c-.5.3-1.1,0-1.1-.7-.4-3.8.3-11.2,1.3-13.6l1-2.7.9,2.3c.5,1.3,1.1,3.4,1.3,4.8h0ZM697.5,455.2c.5,3.2.4,4.8-.4,4.8s-.8-.8-.5-1.8c.5-1.3.4-1.4-.4-.3-.5.7-.7,2.2-.5,3.2.6,2-.7,2.5-2.3.9s-.5-10.2.9-9.3c.7.4.8,0,.4-1.1-.9-2.3.3-4.4,1.3-2.5.5.8,1.1,3.5,1.5,6.1h0ZM431.2,456.7c6.6,7.1,6.8,7.9,6.8,30.5v20.8h-7v-19.8c0-17.9-.2-20.1-1.8-21.5-3.7-3.3-4.2-.6-4.2,21.1v20.3l-3.7-.3-3.8-.3-.3-19.3c-.3-21.2.3-23.9,6.2-31,3.4-3.9,4.5-4,7.8-.5h0ZM607.2,456.7c6.6,7.1,6.8,7.9,6.8,30.5v20.8h-7v-19.9c0-16.4-.3-20.1-1.5-21.1-.8-.7-2.2-1-3-.6-1.3.4-1.5,3.7-1.5,21.1v20.6l-3.7-.3-3.8-.3-.3-19.7c-.3-21.6,0-23.2,6.3-30.7,3.3-3.8,4.4-3.9,7.7-.4ZM283.4,466.5c-.4.8-1.1,1.2-1.6.9-.6-.4-.5-1,.3-1.5,1.9-1.2,1.9-1.1,1.3.6h0ZM522.6,468.8c7.3,4.8,13.4,11.4,16.8,18.1,2.6,5,2.6,5.2,2.6,29.6v24.5h-53v-48.7l3.1-6.1c1.7-3.4,5-8.1,7.3-10.6,4.1-4.2,13.8-10.6,16.2-10.6s3.7,1.7,7,3.8h0ZM454,530v4h-64v-8h64v4ZM641,530v4h-64v-8h64v4ZM676.6,556.2c8.6,4.7,12.3,4.4-96.9,5.2-56.2.4-109.6.5-118.7.2-9.1-.2-38.3-.5-65-.5h-48.5c0,0,3-2.6,3-2.6,1.7-1.4,4.4-2.9,6-3.4,1.9-.7,60.2-.9,160-.8,144.3.2,157.2.4,160.1,1.9h0Z"/>
            <path d="M511.6,306.6c-.9.8-1.6,2.6-1.6,4,0,5.1,9.3,5.9,10.6.8,1.3-4.9-5.3-8.5-9-4.8h0Z"/>
            <path d="M279.6,418.3c.3,1,.9,1.5,1.2,1.2s0-1.1-.7-1.8c-1-.9-1.1-.8-.5.6h0Z"/>
            <path d="M424.2,267.7c-3.3.7-3.8,3-1.2,5.8,1.8,1.9,3.4,2.5,8.4,2.7,4.1.2,6.8,1.7,8.1,4.5,2.5,5.3,5.1,6.4,7.6,3.2,1-1.3,1.9-2.9,1.9-3.6,0-2.6,3.2-4.3,8.1-4.3s5.4-.5,6.9-2c4.4-4.4,1.4-6.9-7.7-6.5-4.3.1-6.1.8-9.1,3.2-3.7,3-3.9,3-5.1,1.2-.6-1.1-2.2-2.4-3.4-2.8-3-1.2-11.7-2-14.5-1.4h0Z"/>
            <path d="M569.5,268c-3.2.4-4.1,1-4.3,2.7-.5,3.1,4.9,6.3,9.3,5.6,4.3-.7,6.9.9,9.6,5.7s6.5,5.6,7.5,1.6c1-4.3,4.8-6.8,10.3-7,5.7-.2,9.4-2.7,8.9-6-.6-4.3-15.2-3.7-19.6.8l-2.6,2.5-3.3-3c-1.9-1.6-4.1-2.9-5.1-3-.9-.1-2.8-.2-4.2-.3s-4.3.1-6.5.4h0Z"/>
            <path d="M354.2,311.6c-2.8,2-2.8,5.9,0,7.8,1.9,1.4,6.9,1.6,34.6,1.6s33-.4,34.3-1c2.5-1.4,2.5-6.1.1-8.3-1.6-1.5-5.5-1.7-34.3-1.7-27.6.1-32.9.3-34.7,1.6Z"/>
            <path d="M607.2,311.6c-1.2.8-2.2,2.6-2.2,3.9,0,5.3,1.7,5.5,36.7,5.5h32.3l1.4-2.3c2-2.9,1.1-6.2-2-7.6-1.7-.7-12.6-1.1-33.2-1.1s-31.1.2-33,1.6Z"/>
            <path d="M309.5,364c-1.5,1.6-1.7,2.6-.9,4.8.7,2.1,1.8,2.8,5,3.3,2.3.4,22.2.7,44.3.6,38.6-.2,40.3-.3,41.7-2.1,1.8-2.6,1.8-5.1-.2-7-1.4-1.4-6.8-1.6-44.8-1.6s-43.3,0-45.1,2h0Z"/>
            <path d="M631.2,363.2c-1.6,1.6-1.5,6.3,0,7.6,1.5,1.3,77.9,2.9,85.2,1.8,3.7-.6,4.8-1.2,5.6-3.3.7-1.9.6-3.2-.6-4.9l-1.5-2.4h-43.8c-32.7,0-44.1.3-45,1.2h0Z"/>
            <path d="M333,401.5c-1,1.2-1,2.1-.2,4,1.3,2.7,1.6,2.8,8.2,2.9,3.8.1,4.6.5,5.7,2.7,2.9,5.9,6.4,6,8.8.2,1.4-3.3,1.7-3.5,5.5-3,4.5.5,7-1.1,7-4.3s-9.1-5.5-13.8-1.5c-2.7,2.3-3.2,2.4-4.5,1-3.6-3.6-14.3-4.9-16.7-2h0Z"/>
            <path d="M663.9,401.9c-2.2,1.8-2.2,1.9-.6,4.5,1.9,2.9,2.4,3,8,1.7,2.1-.5,3.6-.7,3.4-.4-1,1,1.6,6.4,3.6,7.5,1.7.9,2.4.7,3.9-1.2,1-1.2,1.8-2.8,1.8-3.6,0-1.7,4.2-2.8,7.5-2,2.4.6,6.5-2.1,6.5-4.3s-3.4-4.1-7.1-4.1-9.9,2.3-9.9,4-1.6-.2-3.6-1.5c-4.5-3-10.2-3.3-13.5-.6h0Z"/>
            <path d="M274.1,450.6c0,1.1.3,1.4.6.6.3-.7.2-1.6-.1-1.9-.3-.4-.6.2-.5,1.3Z"/>
            <path d="M270.5,480c.3.5,1.4,1,2.3,1,1.5,0,1.5-.2.2-1-2-1.3-3.3-1.3-2.5,0Z"/>
            <path d="M692.2,495.9c.7.9,1.3,1.7,1.4,1.9,0,.1.7-.4,1.4-1.3,1.1-1.3,1-1.4-.5-.9-1.1.5-1.6.4-1.2-.3.3-.5,0-1-.8-1-1.2,0-1.2.3-.3,1.6h0Z"/>
            <path d="M761.7,515.7c.3.7.6,1.3.8,1.3s.5-.6.8-1.3c.3-.8,0-1.4-.8-1.4s-1.1.6-.8,1.4Z"/>
            <path d="M698.4,688.5"/>
            <path d="M580,697.3c0,.7-1.3,2.1-3,3-3.5,2.1-3.8,4.2-1,5.7,3.9,2.1,3.7,7.3-1,17.9-2.4,5.3-5.3,10.4-6.4,11.3-2,1.7-1.9,1.8,3.7,1.8s5.7,0,5.7-2.4.6-2.4,5.5-3.1c6.3-.7,7.5-.3,6.8,2.5-.5,1.8,0,2,5.7,2s6.2,0,4.1-1.8c-2.5-2.1-11.1-19.4-11.8-23.9-.5-2.8-.8-3.1-2.4-2.3-4.2,2.3-5.6-.6-1.6-3.3l2.2-1.5-2.2-2.4c-1.3-1.3-2.3-3-2.3-3.6s-.4-1.2-1-1.2-1,.6-1,1.3ZM585.8,721.5c1.8,3.8,1.5,4.5-1.8,4.5s-3-.4-3-1c0-1.5,2.3-6,3-6s1.2,1.1,1.8,2.5Z"/>
            <path d="M347,708.9c-6.4.4-10.9,1-10.2,1.4,1.9,1.3,1.7,22.1-.3,23.7-.8.7-1.5,1.6-1.5,2.1s5.4.9,12,.9,13.2-2.2,12.7-6.6c-.3-3.4-.5-3.6-1.2-1.7-.7,2.1-1.4,2.3-7.1,2.3s-6.4,0-6.4-2.5.3-2.5,5.5-2.5,5.5,0,5.5-3-.1-3-5.5-3-5.5,0-5.5-2.5.5-2.5,1-2.6c6.8-.4,11.3,0,12.1,1.2s.9-.2.9-3.4-.1-4.6-.2-4.5c-.2,0-5.5.4-11.8.7h0Z"/>
            <path d="M372.8,708.9c-3.9.5-4.6.9-3.8,2.1,1.6,2.5,1.2,20.3-.5,22.6-.8,1-1.5,2.2-1.5,2.6s5.4.8,12,.8h12v-4.5c0-2.5-.4-4.5-1-4.5s-1,.4-1,.9-2.7,1.1-6,1.3l-6,.3v-9.7c0-5.4.4-10,1-10.3,1.2-.7,1.4-2.6.3-2.3-.5,0-2.9.4-5.5.7h0Z"/>
            <path d="M421,710.2c-7.3,5-8.9,15.2-3.4,21.8,4.6,5.4,14.2,6.3,19.8,1.9l2.6-2.1-2.2-2.7c-1.5-1.9-3.1-2.2-4.7-.9-4,3.1-8.3,2-11-2.9-3.4-6.6,5.6-13.6,11.1-8.6,1.8,1.6,2,1.6,4-.5,1.9-1.8,2-2.3.7-3.8-1.8-2.2-7.1-4.4-10.7-4.4s-4.4,1-6.2,2.2h0Z"/>
            <path d="M459.1,709.7c-4.7,2.4-7.2,6.2-7.8,11.4-1.2,12,12.9,19.9,22.9,12.8,5.5-3.9,7.2-10.6,4.4-17.3-2.9-6.9-12.8-10.4-19.5-6.9ZM470.4,717.1c3.6,2.8,3.3,8.3-.6,11.2-7.1,5.3-16.2-5.7-9.2-11.2,3.4-2.7,6.4-2.7,9.8,0h0Z"/>
            <path d="M516.3,708.9c-4.3.5-5.1.9-4.3,2.1.5.8,1,4,1,7v5.4l-5.5-5.4c-3-3-5.8-6.2-6.1-7.2-.4-1.4-1.6-1.8-5.2-1.8s-4.3.3-3.4,1.2c1.5,1.5,1.7,23.4.2,24.3-2.2,1.3-.8,2.5,2.9,2.5s6.1-1.3,4.1-2.5-1-3.9-1-7.8v-7.2c.1,0,7.9,8.2,7.9,8.2,6.7,7.2,8.1,8.3,11.1,8.3s3.1-.3,2.2-1.2c-1.9-1.9-1.6-21.8.4-24.6.8-1.2,1.4-2.1,1.2-2s-2.6.4-5.5.7h0Z"/>
            <path d="M532,709.5c0,.6.5,1.6,1.1,2.2,1.1,1.1.8,20.8-.4,23.3-.6,1.3.6,1.4,9.2,1,8-.4,10.5-.9,12.8-2.6,3.5-2.6,5.6-8.6,4.8-13.6-.7-4.2-5.3-9.5-8.8-10.3-4.9-1-18.7-1-18.7,0h0ZM550.5,717.6c5.1,5.4,2,12.4-5.4,12.4h-3.9l-.4-7.1c-.2-3.9,0-7.3,0-7.5s2-.4,3.8-.4,4.1.8,5.8,2.6h0Z"/>
            <path d="M609.6,711.2c2,3.9,1.9,20.1,0,22.2-.8.8-1.5,1.7-1.5,2,0,1.2,19.5.6,22-.7,9.3-4.7,9-19.3-.5-24.1-1.9-1-6.4-1.7-12.1-1.8l-9.2-.3,1.4,2.7h0ZM625.4,716.1c2.9,1.4,5.1,5.9,4.1,8.8-1.1,3.5-3.5,5.1-7.6,5.1h-3.9v-7.5c0-7.3,0-7.5,2.5-7.5s3.5.5,4.9,1.1h0Z"/>
            <path d="M656.5,709.4c-5.4,2.4-7.8,6-8.2,12.4-.5,6.9,1.6,11,7,13.5,4.4,2.1,7.6,2.1,12.7,0,11.4-4.6,11.7-20,.5-25.4-4.8-2.3-7.8-2.5-12-.6ZM665.3,716.1c2.4,1.1,4.7,4.7,4.7,7.3s-4.1,6.6-7.1,6.6c-6.5,0-10.4-8.5-5.9-13s4.8-2.5,8.3-.9h0Z"/>
            <path d="M221.2,720.2c-2.1,2.7-1.8,7.3.6,8.3,3,1.2,93.4.6,94.9-.7,1.9-1.5,1.6-5.2-.5-7.1-1.7-1.5-6.5-1.7-47.9-1.7s-46.3.3-47.1,1.2h0Z"/>
            <path d="M702.6,720.6c-1.9,1.9-2.1,5.8-.3,7.3,1,.7,16.7,1.1,52.7,1.1,46.8,0,51.4,0,53.1-1.6,2.2-1.9,2.5-5.4.7-7.2s-14-1.2-52.9-1.2-51.9.2-53.3,1.6h0Z"/>
            <path d="M242.9,747.9c-2.2.7-3,5.3-1.4,7.7l1.5,2.4h102.1c68.4,0,102.7-.3,104-1,2.4-1.3,2.5-5.2.1-7.3-1.5-1.4-12.3-1.6-103.5-1.9-55.9-.2-102.2,0-102.8,0h0Z"/>
            <path d="M509,753.5v6.5h-6.7c-3.8,0-7.3.4-7.8.8-.7.4-.9,3.2-.5,7.2l.5,6.5,7.3.3,7.2.3v13.7c0,18.3-.9,27.5-2.5,25.9-.6-.7-1.5-3.2-1.9-5.7-1.1-6.7-4-12.4-9.1-17.9-5.2-5.5-7.9-6.9-10-5.1-2.5,2.1-1.7,5.2,3.5,13.8,2.8,4.6,5,8.9,5,9.6s-5.9,3.9-13,7.1c-15.6,7-17,7.9-17,11.1,0,6.5,13.9,4.5,27.5-4l4.1-2.5,9.8,9.6,9.8,9.5,9.9-9.8,9.8-9.8,3.8,2.7c5.1,3.5,11.9,6.4,18.2,7.8,4.4.9,5.6.8,7.7-.6,1.7-1.1,2.4-2.4,2.2-3.8-.3-2.4-1.9-3.3-19.5-11.3-5.7-2.6-10.3-4.9-10.3-5.2s2.3-4.6,5.1-9.5c3.7-6.5,4.9-9.7,4.7-12-.3-2.9-.6-3.2-3.2-3-5.4.4-12.9,9.7-16.2,19.9-2.5,7.9-3.6,10.4-4.4,10.4s-.9-9.2-.9-20.5l-.2-20.4,7.8-.3,7.8-.3.3-6.8c.2-4.9,0-6.7-1-6.8-.7,0-4.2,0-7.8-.2l-6.5-.2-.3-6.8-.3-6.7h-12.9v6.5h0Z"/>
            <path d="M667.1,747.8c-65.5,0-91.8.5-92.8,1.3-2,1.7-1.6,5.6.9,7.3,2,1.4,13.6,1.6,104.3,1.6s102.4-.3,103.3-1.2c1.6-1.6,1.5-6.3-.2-7.7-1.9-1.6-8.9-1.6-115.5-1.3h0Z"/>
            <path d="M594.2,773.1c-4.1,1.2-14.8,11.6-19.6,19.1-2.3,3.7-4.9,6.3-7.1,7.4-2,.9-3.8,2-4.1,2.5-.7,1.2,0,1.1,3.1-.5,2.4-1.3,3.1-1.2,5.8.4,17.6,9.8,21.9,12,26.6,13.4,7.6,2.2,16.3,2.1,18.4-.2,3.8-4.2,1-7.3-8.6-9.2-5.4-1.1-20.3-6.1-23.6-8-1.2-.6,0-2.1,5.3-7.2,8.4-7.8,12.2-13.8,10.6-16.7-1.2-2.3-1.9-2.4-6.8-1h0Z"/>
            <path d="M282.2,774.6c-2.6,1.8-2.8,4.1-.6,7.2,1,1.5,12.8,2.2,35.4,2.2h34l1.6-2.5c2-3,1-6.3-2.3-7.6-1.3-.5-16.7-.9-34.1-.9-27.1,0-32.1.2-34,1.6Z"/>
            <path d="M373.6,774.6c-2.2,2.1-2,3.1,1.4,9.1,4.9,8.6,16.9,16.3,28.8,18.5,7.5,1.4,15.8,0,26-4l6.8-2.7-3-3c-1.7-1.7-4.7-5.1-6.7-7.6-6.3-7.8-22.2-14.4-26.4-10.9-.8.7-1.5,1.6-1.5,2,0,1.9,5.6,7.3,11.6,11.1,3.5,2.3,6.4,4.3,6.4,4.6s-1.3.2-3,0c-1.6,0-3-.6-3-1s-.6-.5-1.4-.2-2.8-.2-4.5-1c-1.7-.9-4.2-1.7-5.6-1.8s-2.5-.5-2.5-.8-1.4-1.1-3-1.8c-1.7-.8-2.8-1.8-2.4-2.3.3-.5-.1-.9-.8-.9s-2.4-1.4-3.7-3.1c-4.3-5.4-10.5-7.4-13.5-4.3h0Z"/>
            <path d="M429.4,774.4c-1.3,3.3.8,6.6,9.2,14.5,4.8,4.5,8.5,8.3,8.3,8.4-2.6,1.7-14.9,6.5-18.1,7.1-6,1.2-15.4,3.9-16.5,4.8-.7.6-1.3,2.1-1.3,3.3,0,3.3,4.6,4.9,12.8,4.3,7.5-.6,13.7-3.1,27.3-10.9,6.9-4,9.4-5,11.4-4.5l2.6.7-3-3.3c-1.7-1.8-5.3-6.2-7.9-9.8-6.3-8.4-14.7-15-20.1-15.7-3.2-.4-4.2-.2-4.7,1.1h0Z"/>
            <path d="M619.1,774.6c-7.2,2.5-11.7,5.9-18.1,13.6-3.3,4-6,7.6-6,8s1,.8,2.2.8,5.1,1.2,8.7,2.6c5.9,2.4,7.5,2.6,16.2,2.2,8-.4,10.7-1,16-3.5,7.7-3.6,15.3-10.1,17.9-15.4,2.5-4.8,2.5-6.1,0-8.3-1.6-1.5-2.5-1.6-6.1-.6-2.3.6-5.4,2.3-7,3.8-2.8,2.8-3,3.1-3,5.7s-.8,1.5-1.8,1.5-3.5.9-5.7,2-4.4,2-5,2-2.2.7-3.7,1.4c-2,1.1-2.8,1.2-2.8.3s-.3-.8-.8-.2c-1.1,1.5-4.2,1.5-4.2,0s.7-1.5,1.5-1.9c3.1-1.2,12.4-8.9,13-10.7,1.5-4.7-3.4-6.1-11.4-3.3h0Z"/>
            <path d="M678,775c-2.4,2.4-2.5,3.8-.4,6.8,1,1.5,12.6,2.2,34.7,2.2,36.1,0,37.7-.2,37.7-5.5s-1.6-5.5-37.2-5.5-32.9,0-34.8,2Z"/>
            <path d="M455.7,774.7c-1.5,1.4-.5,5.2,2.3,8.9,6.1,8,13,17.7,13,18.4s-16.6,9.1-25.8,13c-3.7,1.6-5.4,3-5.8,4.6-1,4.1.1,5.4,4.9,5.4s14.5-3.1,24.2-8.7c4.4-2.5,9.8-5.6,12-6.8l4-2.1-1.7-4.4c-.9-2.5-2.4-6.6-3.3-9.2-3.6-10.4-19.7-23.3-23.8-19.1h0Z"/>
            <path d="M566.2,776.4c-6.5,4.7-11.4,10.2-14.3,16.1-1.6,3.3-2.9,6.7-2.9,7.5s-.8,2.8-1.8,4.4l-1.7,2.9,8.5,4.5c20.5,10.8,25.5,13.2,29.5,13.8,5.7.8,8.7-.8,8.3-4.4-.3-2.4-2.1-3.6-15.8-10.5-8.5-4.3-15.6-8.1-15.8-8.5-.3-.9,4.4-7.4,11.6-16.2,3.4-4.1,4.2-6,4-8.4-.3-2.6-.7-3.1-3.3-3.3-1.9-.2-4.3.7-6.3,2.1h0Z"/>
          </g>
        </g>
        <g id="Capa_2" class="cls-2">
          <text id="_xBA__xBA_"/>
          <text/>
        </g>
      </g>
      <text class="cls-3" transform="translate(158.9 672.4)"><tspan x="0" y="0">PARROQUIA</tspan></text>
    </g>
  </g>
</svg>