<?xml version="1.0" encoding="UTF-8"?>
<svg version="1.1" viewBox="0 0 2040 2048" width="774" height="777" xmlns="http://www.w3.org/2000/svg">
<path transform="translate(1110,171)" d="m0 0h5l-3 11-10 26-13 43-3 14-4 31-1 15v22l2 18 5 24 10 30 8 19 13 25 9 16 11 19 12 20 10 19 10 17 15 29 19 38 16 41 5 17 4 17 4 15 4 24 1 7v32l-2 19-5 23-6 20-8 18-11 19-12 16-12 14-11 11-17 13-17 11-23 12-15 7-24 8-20 4-16 1v57l104-1 67-1 26 2 13 5 9 6 12 12 6 10 4 12 1 5v16l-3 12-5 11-7 10-10 9-12 6h-2v654l160-1h75l12 3 10 6 5 6 2 5v10l-6 10-7 6-12 6-24 7-42 16-30 12-32 10-25 6-33 5-32 3-41 1h-60l-213-1h-132l-52-1-26-3-25-5-35-10-33-11-25-9-35-11-28-11-11-6-7-7-3-6-1-8 4-10 6-7 8-5 3-1h202l48 1-1-14v-639l-11-6-12-9-8-9-7-14-3-11v-19l3-11 6-12 8-10 9-7 12-6 13-2h49l140 1-1-6v-52h-17l-23-6-22-8-16-8-20-11-15-10-11-9-13-12-12-13-14-19-11-19-11-23-9-28-2-11-1-11v-40l3-17 10-30 26-56 7-16 11-30 8-26 4-27v-32l-4-21-7-21-8-17-24-36 1-4 7 1 19 10 20 14 10 8 13 11 12 11 13 16 15 21 1-37 2-27 5-28 8-36 8-24 9-22 13-23 14-21 8-11 11-14 6-7 11-9 8-8 11-9 10-9 12-9 18-14z" fill="#D8B687"/>
<path transform="translate(817,1012)" d="m0 0h42v1l-38 1-16 3-9 4-10 7-8 9-7 14-2 7v23l6 16 8 11 7 7 14 9 5 3 1 656h209l-1-46v-565l1-18 3-5 9-10 12-12 17-12 15-8 17-6 12-2h23l12 3 10 6 8 9 6 12 1 5v11l-2 20v17l4 8 7 5 9 3h7l6-3 5-6 6-12 10-25 5-9 8-9 10-6 4-1v654l160-1h75l12 3 10 6 5 6 2 5v10l-6 10-7 6-12 6-24 7-42 16-30 12-32 10-25 6-33 5-32 3-41 1h-60l-213-1h-132l-52-1-26-3-25-5-35-10-33-11-25-9-35-11-28-11-11-6-7-7-3-6-1-8 4-10 6-7 8-5 3-1h202l48 1-1-14v-639l-11-6-12-9-8-9-7-14-3-11v-19l3-11 6-12 8-10 9-7 12-6z" fill="#BA8E60"/>
<path transform="translate(1110,171)" d="m0 0h5l-3 11-10 26-13 43-3 14-4 31-1 15v22l2 18 5 24 10 30 8 19 13 25 9 16 11 19 12 20 10 19 10 17 15 29 19 38 16 41 5 17 4 17 4 15 4 24 1 7v32l-2 19-5 23-6 20-8 18-11 19-12 16-12 14-11 11-17 13-17 11-23 12-15 7-24 8-20 4-16 1-1 57h-1l-1-57 1-20 16-8 10-6 18-18 10-14 8-15 8-24 4-30v-12l-1-18-5-30-7-25-7-21-13-30-16-32-11-19-18-30-3-3-3 8-4 13-3 7-2 6-11 25-12 23-17 28-13 24-7 16-5 13-7 22-4 21-1 12v19l2 16 5 19 8 18 9 15 10 11 5 5 14 8 12 6v78h-1l-1-7v-52h-17l-23-6-22-8-16-8-20-11-15-10-11-9-13-12-12-13-14-19-11-19-11-23-9-28-2-11-1-11v-40l3-17 10-30 26-56 7-16 11-30 8-26 4-27v-32l-4-21-7-21-8-17-24-36 1-4 7 1 19 10 20 14 10 8 13 11 12 11 13 16 15 21 1-37 2-27 5-28 8-36 8-24 9-22 13-23 14-21 8-11 11-14 6-7 11-9 8-8 11-9 10-9 12-9 18-14z" fill="#83081E"/>
<path transform="translate(1031,600)" d="m0 0 4 4 7 12 8 13 12 21 12 23 12 25 9 23 7 21 6 24 4 25 1 18v12l-4 30-8 24-8 15-8 11-9 10-13 13-11 6-13 6-1 25 1 52 105-1 67-1 26 2 13 5 9 6 12 12 6 10 4 12 1 5v16l-3 12-5 11-7 10-10 9-12 6h-3l-1 2-5 2-9 6-7 9-6 13-11 27-6 8-5 4-3 1h-7l-10-4-7-5-4-8v-17l2-20v-11l-3-9-5-9-7-8-12-6-9-2h-23l-15 3-16 6-13 7-14 10-10 9-11 11-4 5-1 3-1 18-1 35-2 7-4 6-7 8-10 6-11 2-10-7-7-8-2-6v-20l3-38v-10l-1-12-4-7-3-2h-8l-8 4-10 8-17 14-13 8-16 6-9 1-18-4-16-8-15-11-14-11-10-7-10-6-9-7-7-7-7-11-5-14v-23l3-10 6-11 11-12 11-7 14-4 8-1 45-1 140 1 1-77-6-2-17-9-8-6-7-8-9-13-8-15-6-16-4-19-1-10v-19l2-18 5-22 6-18 6-14 8-18 14-25 15-25 12-23 9-21 3-9 4-11 4-13z" fill="#FAC830"/>
<path transform="translate(1018,357)" d="m0 0h2l4 33 6 25 7 20 11 25 12 24 13 22 13 21 14 23 15 24 15 28 14 28 11 28 9 28 6 25 4 27 1 15v21l-3 23-5 20-6 15-8 16-11 18-9 11-7 8-8 7-18 14-15 10-16 8h-6l6-7 13-13 10-14 8-15 8-24 4-30v-12l-1-18-5-30-7-25-7-21-13-30-16-32-11-19-18-30-3-3-3 8-4 13-3 7-2 6-11 25-12 23-17 28-13 24-7 16-5 13-7 22-4 21-1 12v19l2 16 5 19 8 18 9 15 10 11 1 3h-6l-18-12-15-13-10-10-9-11-9-12-9-15-9-22-6-23-3-19v-37l2-26 5-27 8-31 15-52 6-26 3-22v-26l-2-9 4 1 10 12 9 15 10 25 4 16 2 13 1 16 7-15 11-33 8-29 8-44 10-78 4-27 6-29 3-12z" fill="#CC2F24"/>
<path transform="translate(817,1012)" d="m0 0h42v1l-38 1-16 3-9 4-10 7-8 9-7 14-2 7v23l6 16 8 11 7 7 14 9 5 3v655l-245 1-10 3-8 6-4 8v12l6 8 5 4 7 3 460-1h461l12-5 7-6 3-5v-9l-4-7-7-6-9-4-208-1-33-1v-655h1v654l160-1h75l12 3 10 6 5 6 2 5v10l-6 10-7 6-12 6-24 7-42 16-30 12-32 10-25 6-33 5-32 3-41 1h-60l-213-1h-132l-52-1-26-3-25-5-35-10-33-11-25-9-35-11-28-11-11-6-7-7-3-6-1-8 4-10 6-7 8-5 3-1h202l48 1-1-14v-639l-11-6-12-9-8-9-7-14-3-11v-19l3-11 6-12 8-10 9-7 12-6z" fill="#824301"/>
<path transform="translate(809,1781)" d="m0 0 1 2 465-1 208 1 12 6 8 9 1 3v9l-6 8-9 6-8 3h-461l-460 1-10-5-8-9-1-2v-12l4-8 7-6 7-3 5-1z" fill="#D8991E"/>
<path transform="translate(859,1012)" d="m0 0 147 1 14 2-1 157-1 35-2 7-4 6-7 8-10 6-11 2-10-7-7-8-2-6v-20l3-38v-10l-1-12-4-7-3-2h-8l-8 4-10 8-17 14-13 8-16 6-9 1-18-4-16-8-15-11-14-11-10-7-10-6-9-7-7-7-7-11-5-14v-23l3-10 6-11 11-12 11-7 14-4 8-1z" fill="#FAC830"/>
<path transform="translate(1037,935)" d="m0 0 2 1-1 25 1 52 105-1 67-1 26 2 13 5 9 6 12 12 6 10 4 12 1 5v16l-3 12-5 11-7 10-10 9-12 6h-3l-1 2-5 2-9 6-7 9-6 13-11 27-6 8-5 4-3 1h-7l-10-4-7-5-4-8v-17l2-20v-11l-3-9-5-9-7-8-12-6-9-2h-23l-15 3-16 6-13 7-14 10-10 9-11 11-4 5-2 3v-129l1-10h-8l-5-1v-78z" fill="#D8991E"/>
<path transform="translate(1242,1127)" d="m0 0h1v654l160-1h75l12 3 10 6 5 6 2 5v10l-6 10-7 6-12 6-24 7-12 4-10 3-24 9-28 10-30 10-29 7-26 4-33 3-18 1h-225l-3-1v-63h461l12-5 7-6 3-5v-9l-4-7-7-6-9-4-208-1-33-1z" fill="#652D00"/>
<path transform="translate(1242,1782)" d="m0 0h33l208 1 12 6 8 9 1 3v9l-6 8-9 6-8 3h-462v-44z" fill="#B9740A"/>
<path transform="translate(1033,727)" d="m0 0h2v42l4 27 12 46 3 17v14l-5 18-6 9-17 17-5 4-5-1-11-12-9-10-4-6-8-22-1-10v-10l2-17 7-19 12-25 9-17 12-27z" fill="#D99A1F"/>
<path transform="translate(1037,935)" d="m0 0 2 1-1 25 1 52h32l34 1v1h-93l-5-1v-78z" fill="#D5B283"/>
<path transform="translate(817,1012)" d="m0 0h42v1l-38 1-16 3-9 4-10 7-8 9-7 14-2 7v23l6 16 8 11 7 7 14 9 5 3v655h-240l-11-1v-1h202l48 1-1-14v-639l-11-6-12-9-8-9-7-14-3-11v-19l3-11 6-12 8-10 9-7 12-6z" fill="#854810"/>
<path transform="translate(1242,1127)" d="m0 0h1v654l160-1h75l12 3 10 6 5 6 2 5v10l-6 10-7 6-12 6-19 5v-2l6-2-2-3-6-1v-1l18-1 14-6 7-6 3-5v-9l-4-7-7-6-9-4-208-1-33-1z" fill="#841C19"/>
<path transform="translate(1444,1842)" d="m0 0 2 1-9 4-41 16-19 7-34 10-26 5-30 4-23 2-41 1h-60l-213-1h-132l-52-1-26-3-25-5-18-5-2-2 11 2 26 6 27 4 13 1 282 1h194l43-3 22-3 25-5 19-5 36-12 19-7z" fill="#8E282A"/>
<path transform="translate(817,1012)" d="m0 0h42v1l-38 1-16 3-9 4-10 7-8 9-7 14-2 7v23l6 16 8 11 7 7 14 9 5 3v592h-1l-1-591-11-6-12-9-8-9-7-14-3-11v-19l3-11 6-12 8-10 9-7 12-6z" fill="#83081E"/>
<path transform="translate(1444,1842)" d="m0 0 2 1-9 4-41 16-19 7-34 10-26 5-30 4-23 2h-16l1-2 42-3 22-3 25-5 19-5 36-12 19-7z" fill="#881E20"/>
<path transform="translate(817,1012)" d="m0 0h42v1l-38 1-16 3-9 4-10 7-8 9-7 14-2 7v23l6 16 8 11 7 7 14 9 5 3v23h-1l-1-22-11-6-12-9-8-9-7-14-3-11v-19l3-11 6-12 8-10 9-7 12-6z" fill="#8A2F1A"/>
<path transform="translate(859,1012)" d="m0 0 147 1-1 2h-140l-44-1v-1z" fill="#C48D36"/>
<path transform="translate(1227,1013)" d="m0 0h10l13 5 9 6 12 12 6 10 4 12 1 5v16l-3 12-5 11-7 10-10 9-6 2 4-4 8-7 6-7 8-16 2-6v-21l-4-12-6-11-11-12-9-6-9-4-13-3z" fill="#831E19"/>
<path transform="translate(555,1781)" d="m0 0h14v1l-13 3-9 6-4 6-1 3v12l6 8 5 4 12 6 1 2-9-3-10-6-8-9-2-7 1-8 6-10 9-7z" fill="#85211A"/>
<path transform="translate(767,1065)" d="m0 0h1l1 16 6 16 8 11 7 7 14 9 5 3v23h-1l-1-22-11-6-12-9-8-9-7-14-3-11z" fill="#872D15"/>
<path transform="translate(1482,1781)" d="m0 0 10 3 9 6 4 5 2 5v10l-3 4-3 1 2-5v-9l-4-7-7-6-10-5z" fill="#841E19"/>
<path transform="translate(1281,1063)" d="m0 0h1v16l-3 12-5 11-7 10-10 9-6 2 4-4 8-7 6-7 8-16 2-6 1-17z" fill="#893116"/>
<path transform="translate(1017,1158)" d="m0 0h2v14l-1 23h-1l-2-15v-19z" fill="#E5CEAF"/>
<path transform="translate(817,1012)" d="m0 0h42v1l-38 1-16 3-9 4-4 1v-2l12-6z" fill="#862C14"/>
<path transform="translate(1227,1013)" d="m0 0h10l13 5 9 6-1 3-9-6-9-4-13-3z" fill="#852618"/>
<path transform="translate(1393,1861)" d="m0 0m-3 1h3v2l-16 6v-3z" fill="#84121C"/>
<path transform="translate(555,1781)" d="m0 0h14v1l-13 3-5 2 2-5z" fill="#811715"/>
<path transform="translate(767,1065)" d="m0 0h1l1 16 3 10-3-1-3-11z" fill="#924412"/>
<path transform="translate(1264,1111)" d="m0 0 3 1-10 9-6 2 4-4 8-7z" fill="#832712"/>
<path transform="translate(549,1823)" d="m0 0 6 2 10 5 1 2-9-3-8-5z" fill="#821D16"/>
<path transform="translate(1504,1803)" d="m0 0 3 1v6l-3 4-3 1 2-5z" fill="#7E2312"/>
<path transform="translate(1227,1013)" d="m0 0h10l7 3-4 1-13-3z" fill="#822715"/>
<path transform="translate(790,1021)" d="m0 0 3 1-10 8v-3z" fill="#8B3717"/>
</svg>
